<svg width="60" height="60" viewBox="0 0 60 60" fill="none" xmlns="http://www.w3.org/2000/svg">
<g clip-path="url(#clip0)">
<path d="M52.2986 49.373C56.3072 44.4365 58.7109 38.1441 58.7109 31.2891C58.7109 15.4326 45.8565 2.57812 30 2.57812C14.1435 2.57812 1.28906 15.4326 1.28906 31.2891C1.28906 38.1441 3.69278 44.4365 7.70142 49.373H52.2986Z" fill="#DA2F3C"/>
<path d="M51.5749 43.3388C51.5749 39.5718 50.3229 35.4433 49.5026 33.1421C48.018 36.2164 45.6921 38.8742 42.7922 40.8701C42.0886 41.3544 41.4679 41.9513 40.979 42.6512C38.5089 46.1879 37.31 49.7163 30 49.7163H29.9995C29.9075 49.7163 29.8164 49.7154 29.7258 49.7141V50.4208C29.8174 50.419 29.9084 50.4163 29.9995 50.4163C34.6706 50.4163 38.9658 52.9541 42.3697 57.2021C46.3271 55.3093 49.785 52.5385 52.4872 49.1386C51.926 47.1227 51.5749 45.1131 51.5749 43.3388Z" fill="#F0E2C5"/>
<path d="M29.9606 50.4172V49.7163C22.6859 49.7035 21.4865 46.1815 19.021 42.6512C18.5321 41.9513 17.9109 41.3544 17.2073 40.8701C14.3079 38.8742 11.982 36.2164 10.4974 33.1421C9.67712 35.4433 8.4256 39.5718 8.4256 43.3388C8.4256 45.1135 8.07404 47.1227 7.51282 49.1391C10.2145 52.5385 13.6729 55.3093 17.6303 57.2021C21.0246 52.966 25.3052 50.4314 29.9606 50.4172Z" fill="#E5D2B1"/>
<path d="M30 50.1819C25.2667 50.1819 20.9189 52.7866 17.4939 57.1376C21.2746 58.9705 25.5167 60 30 60C34.4833 60 38.7254 58.9705 42.5061 57.1376C39.0811 52.7866 34.7333 50.1819 30 50.1819Z" fill="#F9F0E1"/>
<path d="M42.7922 40.8082C42.0891 41.2921 41.4679 41.889 40.979 42.5894C38.5089 46.1256 37.31 49.6545 30 49.6545C22.69 49.6545 21.4911 46.1256 19.021 42.5889C18.5316 41.889 17.9109 41.2921 17.2073 40.8082C14.7881 39.1429 12.7684 37.017 11.3031 34.573C11.3013 34.6737 11.2994 34.7744 11.2994 34.8756C11.2994 44.8022 19.6719 52.8497 30 52.8497C40.3281 52.8497 48.7006 44.8022 48.7006 34.8756C48.7006 34.7744 48.6983 34.6737 48.6964 34.573C47.2316 37.017 45.2119 39.1429 42.7922 40.8082Z" fill="#1BAFEA"/>
<path d="M34.1776 49.1326C32.281 49.6929 30.4628 49.6256 30 49.6545C22.69 49.6545 21.4911 46.1256 19.021 42.5889C18.5316 41.889 17.9109 41.292 17.2073 40.8082C14.7881 39.1428 12.7684 37.017 11.3031 34.573C11.3013 34.6737 11.2994 34.7744 11.2994 34.8756C11.2994 46.6607 22.9221 55.2625 34.7827 52.255C33.2735 51.968 32.8738 49.974 34.1776 49.1326Z" fill="#0596D6"/>
<path d="M49.2508 0C45.1868 0 41.2665 3.43689 39.0111 5.85434C38.6353 6.25763 38.0599 6.40045 37.5357 6.23016C35.2506 5.48813 32.7187 5.37827 30 6.19858C27.2813 5.37827 24.7495 5.48813 22.4643 6.23016C21.9402 6.40045 21.3648 6.25763 20.9889 5.85434C18.734 3.43689 14.8132 0 10.7492 0C7.15165 0 8.57392 7.25143 10.4384 13.4303C10.9506 15.1286 10.855 16.9542 10.155 18.5847C9.20655 20.7948 8.68516 23.2018 8.68516 25.7204C8.68516 32.1053 12.0328 37.7742 17.2073 41.3356C17.9109 41.8199 18.5321 42.4164 19.021 43.1168C21.4911 46.653 22.69 50.1819 30 50.1819C37.31 50.1819 38.5089 46.653 40.979 43.1168C41.4679 42.4164 42.0891 41.8195 42.7922 41.3356C47.9672 37.7737 51.3149 32.1053 51.3149 25.7199C51.3149 23.2018 50.7935 20.7948 49.845 18.5847C49.1451 16.9542 49.0494 15.1286 49.5616 13.4303C51.4261 7.25143 52.8479 0 49.2508 0V0Z" fill="#F9F0E1"/>
<path d="M28.2477 43.1168C27.8975 42.4164 27.453 41.8199 26.9499 41.3356C23.2462 37.7742 20.8507 32.1053 20.8507 25.7204C20.8507 23.2018 21.2238 20.7948 21.9026 18.5847C22.4034 16.9547 22.4721 15.1291 22.105 13.4303C21.5442 10.8334 21.0393 8.04749 20.8337 5.69C18.5573 3.284 14.7221 0 10.7492 0C7.1521 0 8.57392 7.25143 10.4384 13.4303C10.9506 15.1286 10.855 16.9542 10.155 18.5847C9.20655 20.7948 8.68515 23.2018 8.68515 25.7204C8.68515 32.1053 12.0328 37.7742 17.2073 41.3356C17.9109 41.8199 18.5316 42.4164 19.021 43.1168C21.4911 46.653 22.69 50.1819 30 50.1819C31.3907 50.1819 32.5603 50.0537 33.5591 49.8225C30.515 48.8388 29.6791 45.9805 28.2477 43.1168Z" fill="#F0E2C5"/>
<path d="M49.2508 0C45.1868 0 41.2665 3.43689 39.0111 5.85434C38.6353 6.25763 38.0599 6.40045 37.5357 6.23016C35.2506 5.48813 32.7187 5.37827 30 6.19858C27.2813 5.37827 24.7495 5.48813 22.4643 6.23016C21.9402 6.40045 21.3648 6.25763 20.9889 5.85434C18.7335 3.43689 14.8132 0 10.7492 0C7.15165 0 8.57392 7.25143 10.4384 13.4303C10.9506 15.1286 10.855 16.9542 10.155 18.5847C9.20655 20.7948 8.68516 23.2018 8.68516 25.7204C8.68516 26.8195 8.78678 27.897 8.97767 28.9467C9.63593 27.1106 11.1438 24.1621 14.3143 22.7238C14.8691 22.4721 15.2902 21.9987 15.4697 21.4174C16.1243 19.2961 18.2712 14.4896 24.0125 16.046C27.1417 16.8942 28.2784 20.8392 27.9941 22.7362C27.9126 23.2809 28.331 23.7721 28.8821 23.7721H30V23.7717V23.7721H31.1179C31.6686 23.7721 32.0874 23.2809 32.0055 22.7362C31.7217 20.8392 32.8578 16.8942 35.9876 16.046C41.7288 14.4896 43.8757 19.2961 44.5299 21.4174C44.7098 21.9987 45.1309 22.4721 45.6853 22.7238C48.8562 24.1621 50.3641 27.1111 51.0223 28.9471C51.2132 27.897 51.3149 26.8195 51.3149 25.7204C51.3149 23.2018 50.7935 20.7948 49.845 18.5847C49.1451 16.9542 49.0494 15.1291 49.5616 13.4303C51.4265 7.25143 52.8479 0 49.2508 0Z" fill="#FBB03B"/>
<path d="M25.8485 5.63599C24.6703 5.67398 23.5396 5.88089 22.4643 6.23016C21.9402 6.40045 21.3648 6.25763 20.9889 5.85434C18.734 3.43689 14.8132 0 10.7492 0C7.15165 0 8.57392 7.25143 10.4384 13.4303C10.9506 15.1286 10.855 16.9542 10.155 18.5847C9.20655 20.7948 8.68516 23.2018 8.68516 25.7204C8.68516 26.8195 8.78678 27.897 8.97767 28.9467C9.63593 27.1106 11.1438 24.1621 14.3143 22.7238C14.8691 22.4721 15.2902 21.9987 15.4697 21.4174C16.0565 19.5168 17.8413 15.4614 22.3357 15.7576C20.5682 9.35806 24.2802 6.51993 25.8485 5.63599Z" fill="#F7931E"/>
<path d="M40.1985 23.7722C40.1985 25.0832 39.1356 26.1461 37.8246 26.1461C36.5135 26.1461 35.4506 25.0832 35.4506 23.7722C35.4506 22.4611 36.5135 21.3982 37.8246 21.3982C39.1356 21.3982 40.1985 22.4611 40.1985 23.7722Z" fill="#574F7F"/>
<path d="M30 39.1393C30 39.1393 27.8151 39.9037 25.7666 39.2244C25.8215 42.0612 27.6952 44.5487 30 44.5487C32.3053 44.5487 34.1789 42.0612 34.2339 39.2244C32.1849 39.9037 30 39.1393 30 39.1393Z" fill="#ED435C"/>
<path d="M27.5858 41.7142C28.5246 41.7838 29.3642 41.6011 29.7601 41.494C29.9176 41.4514 30.0824 41.4514 30.2399 41.494C30.6358 41.6011 31.4754 41.7838 32.4142 41.7142C32.8674 41.6803 33.2387 41.9834 33.3485 42.3821C33.8846 41.4853 34.211 40.3839 34.2339 39.2244C32.1849 39.9042 30 39.1393 30 39.1393C30 39.1393 27.8151 39.9042 25.7666 39.2244C25.789 40.3844 26.1159 41.4853 26.6515 42.3821C26.7613 41.9834 27.1326 41.6803 27.5858 41.7142Z" fill="#DA2F3C"/>
<path d="M50.8594 0.827149C50.8594 0.826691 47.1052 1.48175 44.697 5.57965C44.2557 6.3313 44.1142 7.22119 44.3074 8.07126C44.4452 8.67596 44.5688 9.48621 44.5409 10.3779C44.5102 11.3571 45.0522 12.2612 45.9109 12.7331C46.804 13.2243 47.986 14.0396 49.2426 15.363C49.265 14.7125 49.3712 14.0625 49.5621 13.4303C51.048 8.50613 52.2523 2.8999 50.8594 0.827149Z" fill="#F7931E"/>
<path d="M47.5754 13.136C47.3538 12.0626 46.9739 11.1292 46.6365 10.4462C46.1623 9.48584 46.0766 8.38171 46.3893 7.35724C47.438 3.92264 49.4655 1.89978 50.8731 0.84967C50.8681 0.842346 50.8639 0.834106 50.8594 0.826782H50.8589C50.8589 0.826782 47.1052 1.48184 44.697 5.57974C44.2557 6.33139 44.1142 7.22128 44.3074 8.07089C44.4452 8.6756 44.5688 9.4863 44.5409 10.378C44.5102 11.3572 45.0522 12.2608 45.9109 12.7328C46.5051 13.0596 47.2279 13.5316 48.0148 14.1994C47.807 13.8804 47.655 13.5224 47.5754 13.136Z" fill="#F47A21"/>
<path d="M9.14065 0.827149C9.14111 0.826691 12.8948 1.48175 15.3031 5.57965C15.7444 6.3313 15.8858 7.22119 15.6926 8.07126C15.5548 8.67596 15.4312 9.48621 15.4592 10.3779C15.4898 11.3571 14.9478 12.2612 14.0895 12.7331C13.196 13.2243 12.014 14.0396 10.7579 15.363C10.7355 14.7125 10.6288 14.0625 10.4384 13.4303C8.95205 8.50613 7.74722 2.8999 9.14065 0.827149Z" fill="#F47A21"/>
<path d="M40.8536 32.2266C40.5936 31.746 39.9935 31.5674 39.5133 31.8275C39.0825 32.1506 36.8468 32.7498 35.5422 35.9231C34.6907 37.994 33.0986 38.726 30.9892 38.1954V36.2993C30.9892 35.7528 30.5466 35.3101 30 35.3101C29.4539 35.3101 29.0108 35.7528 29.0108 36.2993V38.1954C26.9156 38.7214 25.3152 38.0082 24.4579 35.9231C23.1532 32.7508 20.9212 32.1529 20.4868 31.8275C20.0066 31.5674 19.406 31.7464 19.1464 32.2266C18.8864 32.7068 19.0649 33.3074 19.5456 33.5674C20.04 33.9323 21.6275 34.2417 22.6282 36.6752C23.9781 39.9592 26.9266 40.9809 30 39.9669C33.029 40.9662 36.0013 40.0095 37.3718 36.6752C38.378 34.228 39.955 33.9364 40.4544 33.5674C40.9351 33.3074 41.1136 32.7068 40.8536 32.2266Z" fill="#493D71"/>
<path d="M33.1796 32.5269C33.1796 30.986 31.756 30.5402 30 30.5402C28.244 30.5402 26.8208 30.986 26.8208 32.5269C26.8208 34.0672 28.244 36.2988 30 36.2988C31.756 36.2988 33.1796 34.0672 33.1796 32.5269Z" fill="#574F7F"/>
<path d="M29.4868 32.249C29.4868 31.3737 29.9469 30.8519 30.6656 30.5644C30.4509 30.5479 30.2284 30.5402 30 30.5402C28.244 30.5402 26.8208 30.986 26.8208 32.5269C26.8208 34.0672 28.2445 36.2988 30 36.2988C30.5594 36.2988 31.0849 36.0718 31.5413 35.7133C30.3406 35.0491 29.4868 33.4419 29.4868 32.249Z" fill="#3D3660"/>
<path d="M35.4625 23.5428C35.2968 25.2672 36.9699 26.5833 38.6069 26.0115C38.9928 25.638 39.2349 25.1111 39.2349 24.5256C39.2349 22.4153 36.4604 21.6838 35.4625 23.5428Z" fill="#3D3660"/>
<path d="M24.5494 23.7722C24.5494 25.0832 23.4865 26.1461 22.1754 26.1461C20.8644 26.1461 19.8015 25.0832 19.8015 23.7722C19.8015 22.4611 20.8644 21.3982 22.1754 21.3982C23.4865 21.3982 24.5494 22.4611 24.5494 23.7722Z" fill="#574F7F"/>
<path d="M24.538 23.5428C24.7032 25.2672 23.0301 26.5833 21.3936 26.0115C21.0072 25.638 20.7651 25.1111 20.7651 24.5256C20.7651 22.4153 23.5396 21.6838 24.538 23.5428Z" fill="#3D3660"/>
<path d="M12.4246 13.136C12.6462 12.0626 13.0261 11.1292 13.3635 10.4462C13.8377 9.48584 13.9233 8.38171 13.6107 7.35724C12.562 3.92264 10.5345 1.89978 9.12689 0.84967C9.13193 0.842346 9.13605 0.834106 9.14108 0.826782C9.14108 0.826782 12.8947 1.48184 15.303 5.57974C15.7443 6.33139 15.8858 7.22128 15.6926 8.07089C15.5548 8.6756 15.4312 9.4863 15.4591 10.378C15.4898 11.3572 14.9478 12.2608 14.0891 12.7328C13.4949 13.0596 12.7721 13.5316 11.9852 14.1994C12.193 13.8804 12.345 13.5224 12.4246 13.136Z" fill="#EA631F"/>
</g>
<defs>
<clipPath id="clip0">
<rect width="60" height="60" fill="white"/>
</clipPath>
</defs>
</svg>
