<svg width="60" height="60" viewBox="0 0 60 60" fill="none" xmlns="http://www.w3.org/2000/svg">
<path d="M43.5484 26.6128V27.2919C43.5484 28.124 43.6826 28.9507 43.9457 29.7401L45.4839 34.3547H48.3871V23.7095H46.4516C44.8482 23.7096 43.5484 25.0093 43.5484 26.6128Z" fill="#5A4146"/>
<path d="M56.7989 28.6231L55.1613 34.3548L47.4193 27.5806C46.3503 27.5806 45.4839 26.714 45.4839 25.6451C45.4839 24.0418 46.7837 22.7419 48.3871 22.7419H55.1612C56.2302 22.7419 57.0967 23.6085 57.0967 24.6774V26.4964C57.0968 27.2156 56.9965 27.9314 56.7989 28.6231Z" fill="#694B4B"/>
<path d="M53.2252 37.2585H47.4188V41.5416H53.2252V37.2585Z" fill="#E6AF78"/>
<path d="M47.4193 39.0357C48.3169 39.4004 49.2956 39.6057 50.3225 39.6057C51.3495 39.6057 52.3282 39.4004 53.2257 39.0357V37.2581H47.4193V39.0357Z" fill="#D29B6E"/>
<path d="M57.8943 40.9397L53.2255 39.6058L50.3225 41.5323L47.4193 39.6057L42.7508 40.9397C41.5044 41.2958 40.6452 42.435 40.6452 43.7312V50.8065C40.6452 51.341 41.0784 51.7742 41.6129 51.7742H59.0323C59.5668 51.7742 60 51.341 60 50.8065V43.7312C60 42.4349 59.1407 41.2958 57.8943 40.9397Z" fill="#D5DCED"/>
<path d="M51.2903 51.7742H49.3548L49.8387 41.5413H50.8064L51.2903 51.7742Z" fill="#AFB9D2"/>
<path d="M50.3226 38.2259C47.1157 38.2259 44.5161 35.6262 44.5161 32.4194V31.2857C44.5161 30.7724 44.7201 30.2801 45.083 29.917L46.8379 28.1621C47.2095 27.7905 47.7176 27.5769 48.2428 27.5934C51.3363 27.691 54.0745 28.3537 55.5714 29.8156C55.9378 30.1735 56.1291 30.6742 56.1291 31.1863V32.4194C56.1291 35.6263 53.5294 38.2259 50.3226 38.2259Z" fill="#F0C087"/>
<path d="M47.4193 31.5255C47.4193 30.4092 48.3568 29.5219 49.471 29.5929C51.4246 29.7176 54.3236 30.044 56.1021 30.8995C56.0441 30.4912 55.8687 30.1058 55.5714 29.8154C54.0745 28.3535 51.3363 27.6908 48.2428 27.5932L48.2427 27.5933V27.5932C47.7176 27.5767 47.2093 27.7904 46.8379 28.1619L45.0831 29.9167C44.7201 30.2796 44.5161 30.7719 44.5161 31.2853V32.4191C44.5161 35.0671 46.2905 37.2965 48.7138 37.9948C47.9072 36.9996 47.4195 35.7363 47.4195 34.3546L47.4193 31.5255Z" fill="#E6AF78"/>
<path d="M56.1291 46.6147C56.1291 45.8447 56.4349 45.1063 56.9794 44.5619L59.4704 42.0708C59.8034 42.5467 60 43.1196 60 43.7312V50.8065C60 51.341 59.5668 51.7743 59.0323 51.7743H56.1291V46.6147Z" fill="#C7CFE2"/>
<path d="M50.8064 43.4767H49.8387C49.5715 43.4767 49.3548 43.26 49.3548 42.9929V41.5413H51.2903V42.9929C51.2903 43.26 51.0737 43.4767 50.8064 43.4767Z" fill="#959CB5"/>
<path d="M50.3225 41.5323L48.6823 42.7851C48.3997 43.001 47.9912 42.9145 47.8205 42.6026L46.3491 39.9155L46.9413 39.0121C47.0727 38.8117 47.3527 38.7776 47.5283 38.9405L50.3225 41.5323Z" fill="#C7CFE2"/>
<path d="M50.3225 41.5324L51.9628 42.7854C52.2453 43.0013 52.6539 42.9148 52.8246 42.6028L54.296 39.9157L53.7037 39.0123C53.5724 38.8119 53.2924 38.7778 53.1168 38.9407L50.3225 41.5324Z" fill="#C7CFE2"/>
<path d="M17.3229 37.8216C16.4959 35.6304 15.84 31.8637 15.6983 29.9026C15.4288 26.1706 12.6164 23.1284 8.81459 23.1284C5.01279 23.1284 2.20041 26.1707 1.93088 29.9026C1.7892 31.8636 1.1333 35.6304 0.306308 37.8216C0.124081 38.3047 0.334433 38.8373 0.810097 39.0529C1.69627 39.4545 3.58568 40.2413 5.86439 40.5478H11.7647C14.0327 40.2406 15.9354 39.4533 16.819 39.0529C17.2947 38.8373 17.5051 38.3047 17.3229 37.8216Z" fill="#5A4146"/>
<path d="M16.8191 39.0531C17.2946 38.8375 17.5051 38.3049 17.3227 37.8219C16.4959 35.6307 15.8399 31.8639 15.6983 29.9028C15.4289 26.1708 12.6164 23.1287 8.8147 23.1287C8.80509 23.1287 8.7956 23.1287 8.78599 23.1288C5.86884 23.1406 4.83794 27.119 7.34915 28.6034C7.49997 28.6926 7.59665 28.7355 7.59665 28.7355L9.79615 40.548H11.7648C14.0328 40.2406 15.9355 39.4535 16.8191 39.0531Z" fill="#694B4B"/>
<path d="M15.8145 42.4909L12.6827 40.9252C12.027 40.5973 11.6127 39.927 11.6128 39.1938L11.613 36.2905H5.80641V39.194C5.80641 39.9271 5.39227 40.5972 4.73648 40.9251L1.60477 42.4909C0.621211 42.9826 0 43.9879 0 45.0874V50.8064C0 51.3408 0.433242 51.7742 0.967734 51.7742H16.4516C16.9861 51.7742 17.4193 51.3408 17.4193 50.8064V45.0876C17.4193 43.9879 16.798 42.9826 15.8145 42.4909Z" fill="#E6AF78"/>
<path d="M8.70973 40.1612C9.75176 40.1612 10.7499 39.9464 11.6648 39.564C11.6408 39.442 11.6128 39.3207 11.6128 39.1936L11.6131 36.2903H5.80642V39.1937C5.80642 39.3216 5.77841 39.4434 5.75415 39.5659C6.66974 39.9463 7.66735 40.1612 8.70973 40.1612Z" fill="#D29B6E"/>
<path d="M15.8145 42.4909L13.5834 41.3754C12.5489 42.9729 10.7546 44.0324 8.70973 44.0324C6.6648 44.0324 4.87043 42.9729 3.8359 41.3752L1.60488 42.4909C0.621328 42.9826 0 43.9878 0 45.0874V50.8064C0 51.3409 0.433242 51.7741 0.967734 51.7741H16.4516C16.9861 51.7741 17.4193 51.3409 17.4193 50.8064V45.0875C17.4193 43.9878 16.798 42.9826 15.8145 42.4909Z" fill="#D5DCED"/>
<path d="M8.70974 38.2257C5.75755 38.2257 3.32005 36.0226 2.95149 33.1708C2.89806 32.7576 3.09669 32.3525 3.46864 32.1649C3.91419 31.9401 4.56165 31.5611 5.18157 31.008C5.87192 30.3921 6.27692 29.7425 6.50567 29.2657C6.70267 28.855 7.15548 28.6228 7.59681 28.7354C11.0041 29.6044 13.3239 31.3771 14.1655 32.1009C14.3915 32.2952 14.5217 32.5817 14.4984 32.8789C14.264 35.8707 11.7619 38.2257 8.70974 38.2257Z" fill="#F0C087"/>
<path d="M14.1654 32.1009C13.3238 31.3771 11.004 29.6044 7.59666 28.7354C7.15533 28.6228 6.70252 28.855 6.50553 29.2657C6.33232 29.6268 6.04603 30.0869 5.62123 30.5566C5.62111 30.5578 5.62076 30.5587 5.62064 30.5599C5.48881 30.7093 5.34842 30.8591 5.18154 31.0081C4.56162 31.5614 3.91416 31.9402 3.46861 32.165C3.09666 32.3526 2.89814 32.7578 2.95146 33.1711C3.28252 35.7322 5.28666 37.7708 7.82939 38.1596C6.67076 37.3714 5.8065 36.2874 5.8065 34.355V32.975C6.02635 32.8127 6.24771 32.6509 6.47014 32.4523C7.00803 31.9723 7.4776 31.4172 7.85412 30.8196C10.4607 31.633 12.2279 32.9878 12.8979 33.5639C13.0813 33.7246 13.5364 34.1442 14.0689 34.6437C14.298 34.0924 14.4495 33.5008 14.4982 32.8791C14.5215 32.5818 14.3913 32.2953 14.1654 32.1009Z" fill="#E6AF78"/>
<path d="M0.589922 43.343C0.217148 43.8378 0 44.4447 0 45.0875V50.8065C0 51.3409 0.433242 51.7742 0.967734 51.7742H3.87094V46.898C3.87094 46.3101 3.60363 45.7539 3.14449 45.3867L0.589922 43.343Z" fill="#C7CFE2"/>
<path d="M43.9035 41.17L35.8064 38.2256L30 40.1612L24.1936 38.2257L16.0965 41.1702C14.5668 41.7264 13.5484 43.1803 13.5484 44.808V50.8064C13.5484 51.3407 13.9816 51.7741 14.5161 51.7741H45.4839C46.0184 51.7741 46.4516 51.3407 46.4516 50.8064V44.808C46.4516 43.1802 45.4334 41.7263 43.9035 41.17Z" fill="#FF507D"/>
<path d="M28.9862 42.0967L28.0645 51.7739H31.9355L31.0138 42.0967H28.9862Z" fill="#707487"/>
<path d="M31.016 43.4262H28.984C28.6098 43.4262 28.3065 43.1229 28.3065 42.7488V40.1611H31.6934V42.7488C31.6935 43.1228 31.3902 43.4262 31.016 43.4262Z" fill="#5B5D6E"/>
<path d="M45.4099 42.1707C46.0634 42.872 46.4516 43.8061 46.4516 44.8081V50.8064C46.4516 51.3409 46.0184 51.7742 45.4839 51.7742H40.6452V48.5389C40.6452 47.5122 41.053 46.5276 41.779 45.8017L45.4099 42.1707Z" fill="#D23C69"/>
<path d="M40.6452 18.2683V10.1613C40.6452 9.09231 39.7786 8.22583 38.7097 8.22583H27.0968C22.8211 8.22583 19.3548 11.692 19.3548 15.9678V18.2683C19.3548 19.3085 19.5225 20.3418 19.8514 21.3286L20.1736 22.295C20.2723 22.591 20.3225 22.901 20.3225 23.2131V23.7097H39.6773V23.2131C39.6773 22.901 39.7276 22.591 39.8263 22.295L40.1484 21.3286C40.4775 20.3417 40.6452 19.3084 40.6452 18.2683Z" fill="#5A4146"/>
<path d="M24.1936 12.1572C24.1936 14.3285 25.9538 16.0886 28.125 16.0886H28.6693L28.9321 23.7096H39.6774V23.2129C39.6774 22.9009 39.7276 22.5909 39.8263 22.2949L40.1484 21.3284C40.4774 20.3417 40.6451 19.3084 40.6451 18.2682V10.1613C40.6451 9.09231 39.7785 8.22583 38.7096 8.22583H28.125C25.9538 8.22583 24.1936 9.98599 24.1936 12.1572Z" fill="#694B4B"/>
<path d="M35.8066 31.4519H24.1934V40.1613H35.8066V31.4519Z" fill="#E6AF78"/>
<path d="M24.1936 34.7238C25.9031 35.7141 27.8823 36.2901 30 36.2901C32.1177 36.2901 34.097 35.7141 35.8064 34.7238V31.4514H24.1935L24.1936 34.7238Z" fill="#D29B6E"/>
<path d="M30 40.1611L26.9135 43.2475C26.4987 43.6624 25.813 43.6156 25.4584 43.1483L22.2581 38.9314L23.0952 37.1674C23.3422 36.6468 23.9865 36.456 24.4771 36.7584L30 40.1611Z" fill="#D23C69"/>
<path d="M30 40.1611L33.0865 43.2475C33.5013 43.6624 34.187 43.6156 34.5416 43.1483L37.7419 38.9314L36.9048 37.1674C36.6578 36.6468 36.0135 36.456 35.5229 36.7584L30 40.1611Z" fill="#D23C69"/>
<path d="M30 34.3549C24.6553 34.3549 20.3225 30.0222 20.3225 24.6775V23.5437C20.3225 23.0304 20.5264 22.5381 20.8894 22.1751L21.6911 21.3734C22.054 21.0104 22.2579 20.5181 22.2579 20.0047V17.6849C22.2579 17.2368 22.5588 16.8475 22.9949 16.7445C25.2837 16.2039 32.406 14.9234 37.253 18.4882C37.5677 18.7197 37.7418 19.0999 37.7418 19.4906V20.0047C37.7418 20.518 37.9457 21.0103 38.3086 21.3734L39.1103 22.1751C39.4732 22.538 39.6771 23.0303 39.6771 23.5437V24.6775C39.6775 30.0222 35.3447 34.3549 30 34.3549Z" fill="#F0C087"/>
<path d="M37.2531 18.4883C33.8441 15.9811 29.3159 15.8726 26.1291 16.2158C24.7848 16.3605 23.6741 16.5842 22.9951 16.7446C22.5591 16.8476 22.2581 17.2369 22.2581 17.685V20.0047C22.2581 20.5181 22.0542 21.0104 21.6912 21.3735L20.8895 22.1751C20.5264 22.5382 20.3225 23.0305 20.3225 23.5439V24.6776C20.3225 29.6257 24.0386 33.6992 28.8306 34.2776C27.1608 32.5386 26.1289 30.1821 26.1289 27.5808V20.5072C26.1289 19.5265 26.8582 18.7069 27.8312 18.5849C30.1536 18.2937 34.4073 18.1186 37.7418 20.0049V19.4907C37.742 19.1 37.5676 18.7196 37.2531 18.4883Z" fill="#E6AF78"/>
<path d="M14.5901 42.1707C13.9366 42.872 13.5484 43.8061 13.5484 44.8081V50.8064C13.5484 51.3409 13.9816 51.7742 14.5161 51.7742H19.3548V48.5389C19.3548 47.5122 18.947 46.5276 18.221 45.8017L14.5901 42.1707Z" fill="#D23C69"/>
</svg>
