<svg width="60" height="60" viewBox="0 0 60 60" fill="none" xmlns="http://www.w3.org/2000/svg">
<path d="M30 6.95361L7.5 22.2283V57.1877H52.5V22.2283L30 6.95361Z" fill="#EAE8E5"/>
<path d="M15.9375 38.4375H26.25V57.1875H15.9375V38.4375Z" fill="#E89D43"/>
<path d="M36.5625 46.875H49.6875V50.625H36.5625V46.875Z" fill="#33385C"/>
<path d="M33.75 57.1875V44.0625L35.625 41.25L37.5 44.0625V57.1875H33.75Z" fill="#454A6D"/>
<path d="M41.25 57.1875V44.0625L43.125 41.25L45 44.0625V57.1875H41.25Z" fill="#454A6D"/>
<path d="M48.75 57.1875V44.0625L50.625 41.25L52.5 44.0625V57.1875H48.75Z" fill="#454A6D"/>
<path d="M32.8125 30H27.1875C25.6341 30 24.375 28.7409 24.375 27.1875V21.5625C24.375 20.0091 25.6341 18.75 27.1875 18.75H32.8125C34.3659 18.75 35.625 20.0091 35.625 21.5625V27.1875C35.625 28.7409 34.3659 30 32.8125 30Z" fill="#4AC3ED"/>
<path d="M35.625 23.4375H30.9375V18.75H29.0625V23.4375H24.375V25.3125H29.0625V30H30.9375V25.3125H35.625V23.4375Z" fill="#454A6D"/>
<path d="M21.5625 46.875H23.4375V48.75H21.5625V46.875Z" fill="#454A6D"/>
<path d="M6.5625 49.6875H8.4375V57.1875H6.5625V49.6875Z" fill="#454A6D"/>
<path d="M12.1875 45.9376C12.1875 49.3032 10.0884 51.5626 7.5 51.5626C4.91156 51.5626 2.8125 49.3032 2.8125 45.9376C2.8125 43.7401 4.81031 38.4188 6.19781 34.9885C6.67219 33.8157 8.32875 33.8157 8.80313 34.9885C10.1897 38.4188 12.1875 43.7401 12.1875 45.9376Z" fill="#76CC7A"/>
<path d="M1.875 56.25H58.125V58.125H1.875V56.25Z" fill="#454A6D"/>
<path d="M55.1972 24.0514L30 6.95326L4.80281 24.0514L2.69719 20.9483L30 2.42139L57.3028 20.9483L55.1972 24.0514Z" fill="#E89D43"/>
</svg>
