<svg width="60" height="60" viewBox="0 0 60 60" fill="none" xmlns="http://www.w3.org/2000/svg">
<path d="M21.0713 47.0399L12.12 51.9225C11.5947 52.2089 11.1227 52.561 10.6834 52.9448C15.9023 57.3452 22.6393 59.9999 30 59.9999C37.3064 59.9999 44.0004 57.3848 49.2045 53.0444C48.7245 52.6391 48.2038 52.2746 47.6264 51.9871L38.0411 47.195C36.8027 46.5757 36.0204 45.3101 36.0204 43.9255V40.1648C36.2898 39.858 36.5978 39.464 36.9272 38.9988C38.2336 37.1535 39.2219 35.1237 39.9068 32.9942C41.1362 32.615 42.0419 31.4795 42.0419 30.1301V26.1157C42.0419 25.2327 41.6491 24.4437 41.0389 23.8912V18.0882C41.0389 18.0882 42.231 9.05762 30.0011 9.05762C17.7713 9.05762 18.9634 18.0882 18.9634 18.0882V23.8912C18.3521 24.4437 17.9604 25.2327 17.9604 26.1157V30.1301C17.9604 31.1874 18.5162 32.118 19.3483 32.6557C20.3513 37.0221 22.9778 40.1648 22.9778 40.1648V43.8327C22.9766 45.1686 22.2453 46.3991 21.0713 47.0399Z" fill="#E7ECED"/>
<path d="M30.5128 0.00446735C13.9472 -0.278552 0.28755 12.9214 0.00453134 29.4871C-0.156223 38.8799 4.03019 47.3218 10.6959 52.9358C11.1317 52.5554 11.5992 52.2067 12.1189 51.9237L21.0702 47.0411C22.2442 46.4003 22.9755 45.1697 22.9755 43.8316V40.1637C22.9755 40.1637 20.3479 37.0211 19.346 32.6547C18.5151 32.1169 17.9581 31.1875 17.9581 30.129V26.1147C17.9581 25.2316 18.3509 24.4426 18.9611 23.8901V18.0871C18.9611 18.0871 17.7691 9.05654 29.9989 9.05654C42.2287 9.05654 41.0366 18.0871 41.0366 18.0871V23.8901C41.6479 24.4426 42.0396 25.2316 42.0396 26.1147V30.129C42.0396 31.4784 41.134 32.6139 39.9045 32.9931C39.2196 35.1226 38.2313 37.1524 36.9249 38.9977C36.5955 39.463 36.2875 39.8569 36.0181 40.1637V43.9245C36.0181 45.309 36.8004 46.5758 38.0389 47.1939L47.6242 51.986C48.1992 52.2735 48.7189 52.6369 49.1977 53.0411C55.6619 47.6501 59.8381 39.5897 59.9932 30.5128C60.2785 13.9471 47.0796 0.287486 30.5128 0.00446735Z" fill="#556080"/>
</svg>
