<svg width="60" height="60" viewBox="0 0 60 60" fill="none" xmlns="http://www.w3.org/2000/svg">
<path d="M39.7725 30.3075L60 43.095V16.98L39.7725 30.3075Z" fill="#F56565"/>
<path d="M0 16.98V43.095L20.2275 30.3075L0 16.98Z" fill="#F56565"/>
<path d="M56.25 9.375H3.75002C1.87877 9.375 0.393768 10.77 0.112518 12.5663L30 32.2575L59.8875 12.5663C59.6063 10.77 58.1213 9.375 56.25 9.375Z" fill="#F56565"/>
<path d="M36.3375 32.5726L31.0313 36.0676C30.7163 36.2738 30.36 36.3751 30 36.3751C29.64 36.3751 29.2838 36.2738 28.9688 36.0676L23.6625 32.5688L0.120026 47.4601C0.408776 49.2414 1.88628 50.6251 3.75003 50.6251H56.25C58.1138 50.6251 59.5913 49.2414 59.88 47.4601L36.3375 32.5726Z" fill="#F56565"/>
</svg>
