<svg width="60" height="60" viewBox="0 0 60 60" fill="none" xmlns="http://www.w3.org/2000/svg">
<g clip-path="url(#clip0)">
<path d="M50.2661 41.9629V48.7028C50.2661 50.1798 49.1782 51.5685 47.25 52.7892C46.9758 52.9573 46.684 53.1341 46.3656 53.2934C46.3656 53.2934 46.3567 53.2934 46.3567 53.3022C46.0826 53.4526 45.7907 53.5942 45.4811 53.7445C44.4463 54.231 43.2521 54.6821 41.9431 55.0801C41.6512 55.1686 41.3592 55.2569 41.0587 55.3454H41.0498C40.7668 55.425 40.4749 55.5045 40.1742 55.5842C39.0598 55.8673 37.8833 56.1236 36.6362 56.3361C36.3443 56.3891 36.0524 56.4422 35.7517 56.4865H35.7429C35.451 56.5307 35.168 56.5836 34.8673 56.6191C33.7263 56.7871 32.5499 56.9199 31.3292 57.0259C31.0374 57.0524 30.7454 57.0791 30.4448 57.0967H30.4359C30.1441 57.1233 29.861 57.1411 29.5603 57.1588C28.4105 57.2294 27.2253 57.2737 26.0223 57.2825C25.7304 57.2914 25.4386 57.2914 25.1378 57.2914H25.129C24.8283 57.2914 24.5453 57.2914 24.2534 57.2825C23.0504 57.2737 21.8653 57.2294 20.7154 57.1588C20.4147 57.1411 20.1228 57.1234 19.8309 57.0967H19.8221C19.5214 57.0791 19.2383 57.0524 18.9465 57.0259C17.7258 56.9198 16.5495 56.7871 15.4084 56.6191C15.1077 56.5837 14.8159 56.5307 14.524 56.4865H14.5151C14.2144 56.4422 13.9314 56.3891 13.6395 56.3361C12.3924 56.1236 11.2161 55.8673 10.1015 55.5842C9.80079 55.5045 9.50008 55.425 9.21705 55.3454H9.20821C8.9075 55.2569 8.62447 55.1686 8.3326 55.0801C7.02355 54.6821 5.82943 54.231 4.79456 53.7445C4.48501 53.603 4.19314 53.4526 3.91012 53.2934C3.91012 53.2934 3.90128 53.2934 3.90128 53.2845C3.59173 53.1342 3.29986 52.9663 3.02567 52.7893C1.09675 51.5774 0 50.1798 0 48.7028V41.9629H50.2661Z" fill="#F6C358"/>
<path d="M50.2661 41.9626C50.2661 43.4398 49.1782 44.8284 47.25 46.0314C46.967 46.217 46.6751 46.394 46.3566 46.5533C46.0824 46.7125 45.7906 46.8539 45.481 47.0043C44.4461 47.4908 43.252 47.9331 41.943 48.3399C41.6511 48.4283 41.3591 48.5169 41.0585 48.6051H41.0497C40.7667 48.6848 40.4748 48.7645 40.1741 48.844C39.0596 49.1271 37.8832 49.3836 36.636 49.5959C36.3442 49.6491 36.0523 49.702 35.7516 49.7462H35.7427C35.4509 49.7905 35.1679 49.8436 34.8671 49.8789C33.7262 50.047 32.5497 50.1797 31.3291 50.2859C31.0372 50.3124 30.7452 50.3389 30.4447 50.3566H30.4358C30.1439 50.383 29.8609 50.4008 29.5602 50.4185C28.4104 50.4893 27.2251 50.5335 26.0222 50.5424C25.7303 50.5512 25.4384 50.5512 25.1377 50.5512H25.1289C24.8282 50.5512 24.5451 50.5512 24.2533 50.5424C23.0503 50.5337 21.8652 50.4893 20.7152 50.4185C20.4145 50.4008 20.1227 50.3831 19.8308 50.3566H19.8219C19.5212 50.3389 19.2382 50.3124 18.9463 50.2859C17.7257 50.1797 16.5494 50.047 15.4083 49.8789C15.1076 49.8436 14.8157 49.7905 14.5239 49.7462H14.515C14.2143 49.702 13.9313 49.6491 13.6394 49.5959C12.3922 49.3836 11.2159 49.1271 10.1014 48.844C9.80066 48.7645 9.49995 48.6848 9.21692 48.6051H9.20808C8.90737 48.5169 8.62434 48.4283 8.33247 48.3399C7.02342 47.9418 5.8293 47.4908 4.79443 47.0043C4.48488 46.8628 4.19302 46.7125 3.90999 46.5533C3.90999 46.5533 3.90115 46.5533 3.90115 46.5445C3.5916 46.394 3.29973 46.226 3.02554 46.0492C1.09675 44.8372 0 43.4398 0 41.9626C0 37.2217 11.2596 33.374 25.1375 33.374C39.0153 33.374 50.2661 37.2217 50.2661 41.9626Z" fill="#FCD462"/>
<path d="M25.0602 48.1513C24.8099 48.1513 24.5719 48.1509 24.3266 48.1435C23.1691 48.1345 22.0226 48.0943 20.8621 48.0232C20.5793 48.0064 20.312 47.9904 20.0449 47.9665L19.9379 47.9568H19.8962C19.6594 47.9415 19.4336 47.9204 19.2024 47.8994C17.9285 47.7884 16.8176 47.6607 15.7575 47.5049C15.5134 47.4752 15.3438 47.4471 15.1754 47.4197L14.6984 47.3463C14.5207 47.3173 14.069 47.2345 14.069 47.2345C12.9289 47.0408 11.8327 46.808 10.6909 46.5182C10.4264 46.4479 10.1382 46.3718 9.86628 46.2951L9.02681 46.0427C8.03384 45.7407 7.11865 45.4084 6.30031 45.0521V45.0446L4.96871 44.3954L4.53821 44.1533H4.52066C4.45621 44.1146 4.39099 44.0743 4.32616 44.0326C2.89808 43.1345 2.39993 42.3588 2.39993 41.9627C2.39993 39.7811 11.0323 35.7744 25.1374 35.7744C39.2366 35.7744 47.8658 39.781 47.8658 41.9627C47.8658 42.3576 47.3717 43.1267 45.9794 43.9952C45.686 44.187 45.4795 44.3084 45.2822 44.4072L45.1506 44.4783C44.9323 44.6053 44.6987 44.7162 44.453 44.8358C43.5772 45.2475 42.4905 45.6564 41.2304 46.0482L40.3995 46.2951C40.1276 46.3714 39.8475 46.4479 39.5588 46.5245C38.4416 46.8076 37.346 47.0404 36.2335 47.2299C35.9967 47.2729 35.778 47.3127 35.5585 47.3479L35.0726 47.4229C34.9132 47.449 34.7542 47.4761 34.5882 47.4955C33.4563 47.6608 32.3453 47.7886 31.1207 47.8952C30.8671 47.9182 30.6211 47.9405 30.3699 47.9569L30.221 47.9667C29.9542 47.9905 29.6948 48.0065 29.4198 48.0225C28.2522 48.0944 27.1057 48.1346 26.0046 48.1424C25.7051 48.151 25.4538 48.1514 25.2 48.1514C25.1794 48.1513 25.0829 48.1513 25.0602 48.1513Z" fill="#F6C358"/>
<path d="M4.79395 47.0045V53.7444C4.4844 53.6029 4.19253 53.4525 3.9095 53.2932C3.9095 53.2932 3.90066 53.2932 3.90066 53.2844C3.59111 53.1341 3.29924 52.9661 3.02505 52.7892V46.0493C3.29924 46.2261 3.59111 46.3942 3.90066 46.5446C3.90066 46.5535 3.9095 46.5535 3.9095 46.5535C4.19253 46.7127 4.4844 46.863 4.79395 47.0045Z" fill="#DC8744"/>
<path d="M10.101 48.8441V55.5841C9.80031 55.5044 9.4996 55.4249 9.21657 55.3453H9.20773C8.90702 55.2568 8.62399 55.1685 8.33212 55.08V48.3401C8.62399 48.4285 8.90702 48.517 9.20773 48.6053H9.21657C9.4996 48.685 9.80031 48.7647 10.101 48.8441Z" fill="#DC8744"/>
<path d="M15.4079 49.879V56.6189C15.1072 56.5835 14.8154 56.5305 14.5235 56.4862H14.5146C14.2139 56.4419 13.9309 56.3889 13.639 56.3358V49.5959C13.9309 49.6491 14.2139 49.702 14.5146 49.7462H14.5235C14.8154 49.7904 15.1072 49.8436 15.4079 49.879Z" fill="#DC8744"/>
<path d="M20.715 50.4185V57.1585C20.4143 57.1408 20.1224 57.1231 19.8306 57.0965H19.8217C19.521 57.0788 19.238 57.0522 18.9461 57.0256V50.2859C19.238 50.3124 19.521 50.3389 19.8217 50.3566H19.8306C20.1224 50.383 20.4142 50.4007 20.715 50.4185Z" fill="#DC8744"/>
<path d="M26.0219 50.5425V57.2824C25.7301 57.2912 25.4382 57.2912 25.1375 57.2912H25.1287C24.8279 57.2912 24.5449 57.2912 24.2531 57.2824V50.5425C24.5449 50.5513 24.8279 50.5513 25.1287 50.5513H25.1375C25.4382 50.5513 25.7301 50.5513 26.0219 50.5425Z" fill="#DC8744"/>
<path d="M31.329 50.2859V57.0256C31.0371 57.0522 30.7451 57.0788 30.4446 57.0965H30.4357C30.1439 57.123 29.8608 57.1408 29.5601 57.1585V50.4185C29.8608 50.4008 30.1439 50.3831 30.4357 50.3566H30.4446C30.7451 50.3388 31.037 50.3124 31.329 50.2859Z" fill="#DC8744"/>
<path d="M36.636 49.5959V56.3358C36.3441 56.3889 36.0522 56.4419 35.7515 56.4862H35.7427C35.4508 56.5305 35.1677 56.5834 34.867 56.6189V49.879C35.1677 49.8436 35.4508 49.7906 35.7427 49.7462H35.7515C36.0522 49.702 36.3441 49.649 36.636 49.5959Z" fill="#DC8744"/>
<path d="M41.943 48.3401V55.08C41.6511 55.1685 41.3591 55.2568 41.0586 55.3453H41.0497C40.7667 55.4249 40.4748 55.5044 40.1741 55.5841V48.8441C40.4748 48.7647 40.7667 48.685 41.0497 48.6053H41.0586C41.3591 48.517 41.651 48.4285 41.943 48.3401Z" fill="#DC8744"/>
<path d="M47.2499 46.0315V52.7891C46.9758 52.9572 46.6839 53.134 46.3655 53.2932C46.3655 53.2932 46.3567 53.2932 46.3567 53.3021C46.0825 53.4525 45.7906 53.5941 45.481 53.7444V47.0045C45.7906 46.8541 46.0825 46.7126 46.3567 46.5535C46.675 46.3941 46.9669 46.2171 47.2499 46.0315Z" fill="#DC8744"/>
<path d="M60 31.741V38.4808C60 39.9579 58.9121 41.3466 56.9839 42.5673C56.7098 42.7354 56.4179 42.9122 56.0995 43.0714C56.0995 43.0714 56.0907 43.0714 56.0907 43.0803C55.8165 43.2307 55.5246 43.3723 55.2151 43.5226C54.1802 44.009 52.9861 44.4602 51.677 44.8581C51.3852 44.9467 51.0933 45.0349 50.7926 45.1235H50.7837C50.5007 45.203 50.2088 45.2826 49.9081 45.3623C48.7937 45.6453 47.6172 45.9017 46.3701 46.1141C46.0782 46.1672 45.7863 46.2202 45.4856 46.2646H45.4768C45.1849 46.3088 44.9019 46.3617 44.6012 46.3972C43.4602 46.5651 42.2838 46.698 41.0632 46.804C40.7713 46.8305 40.4794 46.8571 40.1787 46.8748H40.1699C39.878 46.9013 39.595 46.9191 39.2943 46.9368C38.1445 47.0074 36.9592 47.0518 35.7562 47.0606C35.4643 47.0694 35.1725 47.0694 34.8718 47.0694H34.8629C34.5622 47.0694 34.2792 47.0694 33.9873 47.0606C32.7844 47.0518 31.5992 47.0074 30.4493 46.9368C30.1486 46.9191 29.8567 46.9015 29.5648 46.8748H29.556C29.2553 46.8571 28.9723 46.8305 28.6804 46.804C27.4597 46.6979 26.2834 46.5651 25.1423 46.3972C24.8416 46.3618 24.5498 46.3088 24.2579 46.2646H24.2491C23.9484 46.2202 23.6653 46.1672 23.3735 46.1141C22.1263 45.9017 20.95 45.6453 19.8354 45.3623C19.5347 45.2826 19.234 45.203 18.951 45.1235H18.9421C18.6414 45.0349 18.3584 44.9467 18.0665 44.8581C16.7575 44.4602 15.5633 44.009 14.5285 43.5226C14.2189 43.3811 13.9271 43.2307 13.644 43.0714C13.644 43.0714 13.6352 43.0714 13.6352 43.0626C13.3256 42.9123 13.0338 42.7443 12.7596 42.5674C10.8314 41.3556 9.73456 39.958 9.73456 38.481V31.7411H60V31.741Z" fill="#F6C358"/>
<path d="M60 31.7408C60 33.218 58.9121 34.6066 56.9839 35.8095C56.7009 35.9952 56.409 36.1721 56.0905 36.3315C55.8163 36.4907 55.5244 36.6321 55.2149 36.7825C54.18 37.269 52.9859 37.7113 51.6768 38.1181C51.385 38.2065 51.0931 38.295 50.7924 38.3834H50.7836C50.5005 38.4631 50.2087 38.5428 49.908 38.6223C48.7935 38.9054 47.6171 39.1619 46.3699 39.3742C46.078 39.4274 45.7862 39.4803 45.4855 39.5245H45.4766C45.1848 39.5689 44.9017 39.6219 44.601 39.6573C43.4601 39.8254 42.2836 39.958 41.063 40.0642C40.7711 40.0907 40.4792 40.1172 40.1785 40.1349H40.1697C39.8778 40.1613 39.5948 40.1791 39.2941 40.1968C38.1443 40.2677 36.959 40.3119 35.756 40.3207C35.4642 40.3295 35.1723 40.3295 34.8716 40.3295H34.8628C34.5621 40.3295 34.279 40.3295 33.9872 40.3207C32.7842 40.312 31.599 40.2677 30.4491 40.1968C30.1484 40.1791 29.8565 40.1614 29.5647 40.1349H29.5558C29.2551 40.1172 28.9721 40.0907 28.6802 40.0642C27.4596 39.958 26.2833 39.8254 25.1422 39.6573C24.8415 39.6219 24.5496 39.5689 24.2577 39.5245H24.2489C23.9482 39.4803 23.6652 39.4274 23.3733 39.3742C22.1261 39.1619 20.9498 38.9054 19.8353 38.6223C19.5345 38.5428 19.2338 38.4631 18.9508 38.3834H18.942C18.6413 38.2952 18.3582 38.2066 18.0664 38.1181C16.7573 37.72 15.5632 37.269 14.5283 36.7825C14.2188 36.641 13.9269 36.4907 13.6439 36.3315C13.6439 36.3315 13.635 36.3315 13.635 36.3227C13.3255 36.1721 13.0336 36.0042 12.7594 35.8274C10.8313 34.6156 9.73441 33.2181 9.73441 31.7409C9.73441 27.0001 20.994 23.1523 34.8719 23.1523C48.7497 23.1523 60 26.9998 60 31.7408Z" fill="#FCD462"/>
<path d="M34.7927 37.9295C34.5431 37.9295 34.3052 37.9291 34.0607 37.9217C32.8959 37.9127 31.7497 37.8725 30.597 37.8014C30.3146 37.7846 30.0481 37.769 29.7821 37.7447L29.6735 37.735H29.6289C29.4016 37.7205 29.1843 37.7003 28.9625 37.6803C27.6567 37.5663 26.5457 37.4385 25.4922 37.283C25.2473 37.2533 25.0778 37.2252 24.909 37.1978L24.432 37.1244C24.2488 37.0946 23.8019 37.013 23.8019 37.013C22.657 36.8178 21.5612 36.585 20.4257 36.2962C20.1605 36.2258 19.8722 36.1497 19.6011 36.0731L18.7624 35.8216C17.7655 35.5184 16.8502 35.1857 16.0342 34.8302V34.8208L14.6959 34.1704L14.2717 33.9317H14.2549C14.1901 33.893 14.1249 33.8524 14.0593 33.8103C12.632 32.9134 12.1339 32.1376 12.1339 31.7412C12.1339 29.5596 20.7664 25.5525 34.8714 25.5525C48.9706 25.5525 57.5998 29.5595 57.5998 31.7412C57.5998 32.1357 57.1057 32.9048 55.7135 33.7733C55.4181 33.9662 55.2115 34.0877 55.0162 34.1858L54.8865 34.2558C54.6678 34.3827 54.4337 34.4941 54.1874 34.6136C53.3103 35.0262 52.2245 35.4352 50.9648 35.8265C50.7346 35.896 50.1335 36.0734 50.1335 36.0734C49.8616 36.1496 49.5815 36.2261 49.2929 36.3027C48.1811 36.5851 47.0854 36.8179 45.9667 37.0085C45.7312 37.0515 45.5132 37.0909 45.2941 37.1258L44.8046 37.2015C44.646 37.2276 44.4874 37.2543 44.3222 37.2738C43.196 37.4387 42.0856 37.5664 40.8547 37.6734C40.5996 37.6968 40.3551 37.7191 40.105 37.7351L39.9519 37.7449C39.6859 37.7691 39.4277 37.7847 39.1538 37.8007C37.9933 37.8726 36.8472 37.9128 35.7386 37.9207C35.4391 37.9292 35.1878 37.9296 34.934 37.9296C34.9134 37.9295 34.8156 37.9295 34.7927 37.9295Z" fill="#F6C358"/>
<path d="M14.5278 36.7826V43.5224C14.2183 43.381 13.9264 43.2306 13.6434 43.0713C13.6434 43.0713 13.6345 43.0713 13.6345 43.0625C13.325 42.9122 13.0331 42.7442 12.7589 42.5673V35.8274C13.0331 36.0042 13.325 36.1723 13.6345 36.3227C13.6345 36.3316 13.6434 36.3316 13.6434 36.3316C13.9264 36.4907 14.2183 36.641 14.5278 36.7826Z" fill="#DC8744"/>
<path d="M19.8349 38.6222V45.3622C19.5342 45.2825 19.2335 45.203 18.9505 45.1234H18.9416C18.6409 45.0349 18.3579 44.9466 18.066 44.858V38.1182C18.3579 38.2066 18.6409 38.2951 18.9416 38.3835H18.9505C19.2335 38.4629 19.5342 38.5426 19.8349 38.6222Z" fill="#DC8744"/>
<path d="M25.1418 39.657V46.3969C24.8411 46.3616 24.5492 46.3085 24.2574 46.2643H24.2485C23.9478 46.22 23.6648 46.167 23.3729 46.1139V39.374C23.6648 39.4272 23.9478 39.4801 24.2485 39.5243H24.2574C24.5492 39.5686 24.8411 39.6217 25.1418 39.657Z" fill="#DC8744"/>
<path d="M30.4489 40.1966V46.9366C30.1482 46.9189 29.8563 46.9012 29.5644 46.8746H29.5556C29.2549 46.8569 28.9719 46.8302 28.68 46.8037V40.064C28.9719 40.0905 29.2549 40.117 29.5556 40.1347H29.5644C29.8563 40.1611 30.1482 40.1789 30.4489 40.1966Z" fill="#DC8744"/>
<path d="M35.7558 40.3206V47.0604C35.464 47.0693 35.1721 47.0693 34.8714 47.0693H34.8625C34.5618 47.0693 34.2788 47.0693 33.9869 47.0604V40.3206C34.2788 40.3294 34.5618 40.3294 34.8625 40.3294H34.8714C35.1721 40.3294 35.464 40.3294 35.7558 40.3206Z" fill="#DC8744"/>
<path d="M41.0629 40.064V46.8037C40.771 46.8302 40.4792 46.8569 40.1785 46.8746H40.1696C39.8777 46.9011 39.5947 46.9189 39.294 46.9366V40.1966C39.5947 40.1789 39.8777 40.1612 40.1696 40.1347H40.1785C40.479 40.117 40.771 40.0905 41.0629 40.064Z" fill="#DC8744"/>
<path d="M46.3698 39.374V46.1139C46.078 46.167 45.7861 46.22 45.4854 46.2643H45.4765C45.1847 46.3085 44.9016 46.3614 44.6009 46.3969V39.657C44.9016 39.6217 45.1847 39.5686 45.4765 39.5243H45.4854C45.7861 39.4801 46.078 39.4272 46.3698 39.374Z" fill="#DC8744"/>
<path d="M51.6769 38.1182V44.858C51.385 44.9466 51.0931 45.0349 50.7924 45.1234H50.7836C50.5006 45.203 50.2087 45.2825 49.908 45.3622V38.6222C50.2087 38.5428 50.5006 38.4631 50.7836 38.3834H50.7924C51.093 38.2951 51.3849 38.2066 51.6769 38.1182Z" fill="#DC8744"/>
<path d="M56.9838 35.8096V42.5671C56.7096 42.7352 56.4178 42.912 56.0994 43.0713C56.0994 43.0713 56.0905 43.0713 56.0905 43.0801C55.8164 43.2306 55.5245 43.3721 55.2149 43.5224V36.7826C55.5245 36.6321 55.8164 36.4907 56.0905 36.3316C56.4089 36.1722 56.7008 35.9954 56.9838 35.8096Z" fill="#DC8744"/>
<path d="M50.2661 21.519V28.2589C50.2661 29.7359 49.1782 31.1247 47.25 32.3453C46.9758 32.5134 46.684 32.6902 46.3656 32.8495C46.3656 32.8495 46.3567 32.8495 46.3567 32.8583C46.0826 33.0088 45.7907 33.1503 45.4811 33.3006C44.4463 33.7871 43.2521 34.2382 41.9431 34.6362C41.6512 34.7247 41.3592 34.813 41.0587 34.9015H41.0498C40.7668 34.9811 40.4749 35.0607 40.1742 35.1404C39.0598 35.4234 37.8833 35.6798 36.6362 35.8922C36.3443 35.9453 36.0524 35.9983 35.7517 36.0426H35.7429C35.451 36.0868 35.168 36.1397 34.8673 36.1752C33.7263 36.3432 32.5499 36.4761 31.3292 36.582C31.0374 36.6086 30.7454 36.6352 30.4448 36.6529H30.4359C30.1441 36.6794 29.861 36.6972 29.5603 36.7149C28.4105 36.7855 27.2253 36.8298 26.0223 36.8387C25.7304 36.8475 25.4386 36.8475 25.1378 36.8475H25.129C24.8283 36.8475 24.5453 36.8475 24.2534 36.8387C23.0504 36.8298 21.8653 36.7855 20.7154 36.7149C20.4147 36.6972 20.1228 36.6795 19.8309 36.6529H19.8221C19.5214 36.6352 19.2383 36.6086 18.9465 36.582C17.7258 36.4759 16.5495 36.3432 15.4084 36.1752C15.1077 36.1399 14.8159 36.0868 14.524 36.0426H14.5151C14.2144 35.9984 13.9314 35.9453 13.6395 35.8922C12.3924 35.6798 11.2161 35.4234 10.1015 35.1404C9.80079 35.0607 9.50008 34.9811 9.21705 34.9015H9.20821C8.9075 34.813 8.62447 34.7247 8.3326 34.6362C7.02355 34.2382 5.82943 33.7871 4.79456 33.3006C4.48501 33.1592 4.19314 33.0088 3.91012 32.8495C3.91012 32.8495 3.90128 32.8495 3.90128 32.8407C3.59173 32.6904 3.29986 32.5224 3.02567 32.3455C1.09675 31.1335 0 29.7359 0 28.2589V21.519H50.2661Z" fill="#F6C358"/>
<path d="M50.2661 21.5193C50.2661 22.9964 49.1782 24.385 47.25 25.588C46.967 25.7736 46.6751 25.9506 46.3566 26.11C46.0824 26.2691 45.7906 26.4105 45.481 26.561C44.4461 27.0475 43.252 27.4897 41.943 27.8965C41.6511 27.9849 41.3591 28.0735 41.0585 28.1618H41.0497C40.7667 28.2414 40.4748 28.3211 40.1741 28.4006C39.0596 28.6837 37.8832 28.9402 36.636 29.1525C36.3442 29.2057 36.0523 29.2586 35.7516 29.3028H35.7427C35.4509 29.3472 35.1679 29.4002 34.8671 29.4356C33.7262 29.6037 32.5497 29.7363 31.3291 29.8425C31.0372 29.869 30.7452 29.8955 30.4447 29.9132H30.4358C30.1439 29.9396 29.8609 29.9574 29.5602 29.9751C28.4104 30.046 27.2251 30.0902 26.0222 30.099C25.7303 30.1078 25.4384 30.1078 25.1377 30.1078H25.1289C24.8282 30.1078 24.5451 30.1078 24.2533 30.099C23.0503 30.0903 21.8652 30.046 20.7152 29.9751C20.4145 29.9574 20.1227 29.9397 19.8308 29.9132H19.8219C19.5212 29.8955 19.2382 29.869 18.9463 29.8425C17.7257 29.7363 16.5494 29.6037 15.4083 29.4356C15.1076 29.4002 14.8157 29.3472 14.5239 29.3028H14.515C14.2143 29.2586 13.9313 29.2057 13.6394 29.1525C12.3922 28.9402 11.2159 28.6837 10.1014 28.4006C9.80066 28.3211 9.49995 28.2414 9.21692 28.1618H9.20808C8.90737 28.0735 8.62434 27.9849 8.33247 27.8965C7.02342 27.4985 5.8293 27.0475 4.79443 26.561C4.48488 26.4194 4.19302 26.2691 3.90999 26.11C3.90999 26.11 3.90115 26.11 3.90115 26.1011C3.5916 25.9506 3.29973 25.7826 3.02554 25.6058C1.09675 24.3939 0 22.9964 0 21.5193C0 16.7784 11.2596 12.9307 25.1375 12.9307C39.0153 12.9307 50.2661 16.7784 50.2661 21.5193Z" fill="#FCD462"/>
<path d="M25.0618 27.7074C24.8099 27.7074 24.5704 27.707 24.3235 27.7C23.1626 27.6906 22.0161 27.6504 20.8622 27.5797C20.5825 27.5629 20.3154 27.5473 20.0481 27.5227L19.9395 27.5129H19.8949C19.6676 27.4984 19.4503 27.4782 19.2285 27.4582C17.9226 27.3442 16.8117 27.2164 15.7582 27.0609C15.5157 27.0312 15.3485 27.0039 15.1821 26.977L14.6985 26.9028C14.5208 26.8738 14.0692 26.7911 14.0692 26.7911C12.9273 26.597 11.8317 26.3642 10.6918 26.0742C10.425 26.0039 10.1375 25.9278 9.86641 25.8515L9.02975 25.5996C8.03294 25.2965 7.11723 24.9641 6.30043 24.6082V24.5989L4.96102 23.9477L4.53718 23.7098H4.52116C4.45633 23.6711 4.3915 23.6309 4.32628 23.5891C2.8982 22.6911 2.40005 21.9153 2.40005 21.5192C2.40005 19.3377 11.0325 15.3306 25.1375 15.3306C39.2367 15.3306 47.8659 19.3375 47.8659 21.5192C47.8659 21.9137 47.3718 22.6829 45.9796 23.5521C45.6846 23.7443 45.4772 23.8661 45.2823 23.9637L45.1526 24.0337C44.9339 24.1607 44.6999 24.272 44.4535 24.3915C43.5765 24.8041 42.4906 25.2131 41.2309 25.6044L40.3996 25.8517C40.1285 25.9279 39.8496 26.004 39.562 26.0797C38.4433 26.3642 37.3475 26.597 36.2335 26.7863C35.9917 26.83 35.7683 26.8711 35.5444 26.9066L35.0667 26.9801C34.9092 27.0058 34.7519 27.0325 34.5881 27.0515C33.4619 27.2164 32.3514 27.3442 31.1205 27.4512C30.8674 27.4742 30.6217 27.4969 30.3713 27.5129L30.2178 27.5227C29.951 27.5469 29.6916 27.5629 29.4166 27.5793C28.2587 27.6504 27.1123 27.6906 26.0037 27.6988C25.7065 27.707 25.4537 27.7074 25.1986 27.7074C25.1786 27.7074 25.0841 27.7074 25.0618 27.7074Z" fill="#F6C358"/>
<path d="M4.79395 26.5609V33.3008C4.4844 33.1593 4.19253 33.0089 3.9095 32.8496C3.9095 32.8496 3.90066 32.8496 3.90066 32.8408C3.59111 32.6905 3.29924 32.5225 3.02505 32.3456V25.6057C3.29924 25.7825 3.59111 25.9506 3.90066 26.101C3.90066 26.1099 3.9095 26.1099 3.9095 26.1099C4.19253 26.269 4.4844 26.4193 4.79395 26.5609Z" fill="#DC8744"/>
<path d="M10.101 28.4005V35.1405C9.80031 35.0608 9.4996 34.9813 9.21657 34.9017H9.20773C8.90702 34.8132 8.62399 34.7249 8.33212 34.6364V27.8965C8.62399 27.9849 8.90702 28.0734 9.20773 28.1617H9.21657C9.4996 28.2414 9.80031 28.3211 10.101 28.4005Z" fill="#DC8744"/>
<path d="M15.4079 29.4354V36.1753C15.1072 36.1399 14.8154 36.0868 14.5235 36.0426H14.5146C14.2139 35.9984 13.9309 35.9453 13.639 35.8922V29.1523C13.9309 29.2055 14.2139 29.2584 14.5146 29.3026H14.5235C14.8154 29.347 15.1072 29.4001 15.4079 29.4354Z" fill="#DC8744"/>
<path d="M20.715 29.9749V36.7149C20.4143 36.6972 20.1224 36.6796 19.8306 36.6529H19.8217C19.521 36.6352 19.238 36.6086 18.9461 36.5821V29.8423C19.238 29.8688 19.521 29.8953 19.8217 29.913H19.8306C20.1224 29.9395 20.4142 29.9572 20.715 29.9749Z" fill="#DC8744"/>
<path d="M26.0219 30.0989V36.8388C25.7301 36.8476 25.4382 36.8476 25.1375 36.8476H25.1287C24.8279 36.8476 24.5449 36.8476 24.2531 36.8388V30.0989C24.5449 30.1077 24.8279 30.1077 25.1287 30.1077H25.1375C25.4382 30.1077 25.7301 30.1077 26.0219 30.0989Z" fill="#DC8744"/>
<path d="M31.329 29.8423V36.5821C31.0371 36.6086 30.7451 36.6352 30.4446 36.6529H30.4357C30.1439 36.6794 29.8608 36.6972 29.5601 36.7149V29.9749C29.8608 29.9572 30.1439 29.9395 30.4357 29.913H30.4446C30.7451 29.8953 31.037 29.8689 31.329 29.8423Z" fill="#DC8744"/>
<path d="M36.636 29.1523V35.8922C36.3441 35.9453 36.0522 35.9983 35.7515 36.0426H35.7427C35.4508 36.0868 35.1677 36.1398 34.867 36.1753V29.4354C35.1677 29.4 35.4508 29.347 35.7427 29.3026H35.7515C36.0522 29.2586 36.3441 29.2055 36.636 29.1523Z" fill="#DC8744"/>
<path d="M41.943 27.8965V34.6364C41.6511 34.7249 41.3591 34.8132 41.0586 34.9017H41.0497C40.7667 34.9813 40.4748 35.0608 40.1741 35.1405V28.4005C40.4748 28.3211 40.7667 28.2414 41.0497 28.1617H41.0586C41.3591 28.0734 41.651 27.9849 41.943 27.8965Z" fill="#DC8744"/>
<path d="M47.2499 25.5879V32.3454C46.9758 32.5135 46.6839 32.6904 46.3655 32.8496C46.3655 32.8496 46.3567 32.8496 46.3567 32.8584C46.0825 33.0089 45.7906 33.1504 45.481 33.3007V26.5609C45.7906 26.4105 46.0825 26.269 46.3567 26.1099C46.675 25.9505 46.9669 25.7737 47.2499 25.5879Z" fill="#DC8744"/>
<path d="M60 11.2974V18.0372C60 19.5143 58.9121 20.903 56.9839 22.1237C56.7098 22.2918 56.4179 22.4686 56.0995 22.6278C56.0995 22.6278 56.0907 22.6278 56.0907 22.6367C55.8165 22.7871 55.5246 22.9287 55.2151 23.079C54.1802 23.5655 52.9861 24.0166 51.677 24.4145C51.3852 24.5031 51.0933 24.5913 50.7926 24.6799H50.7837C50.5007 24.7594 50.2088 24.839 49.9081 24.9187C48.7937 25.2017 47.6172 25.4581 46.3701 25.6705C46.0782 25.7236 45.7863 25.7766 45.4856 25.821H45.4768C45.1849 25.8652 44.9019 25.9181 44.6012 25.9536C43.4602 26.1215 42.2838 26.2544 41.0632 26.3604C40.7713 26.3869 40.4794 26.4135 40.1787 26.4312H40.1699C39.878 26.4577 39.595 26.4756 39.2943 26.4932C38.1445 26.5638 36.9592 26.6082 35.7562 26.617C35.4643 26.6258 35.1725 26.6258 34.8718 26.6258H34.8629C34.5622 26.6258 34.2792 26.6258 33.9873 26.617C32.7844 26.6082 31.5992 26.5638 30.4493 26.4932C30.1486 26.4756 29.8567 26.4579 29.5648 26.4312H29.556C29.2553 26.4135 28.9723 26.3869 28.6804 26.3604C27.4597 26.2543 26.2834 26.1215 25.1423 25.9536C24.8416 25.9182 24.5498 25.8652 24.2579 25.821H24.2491C23.9484 25.7768 23.6653 25.7236 23.3735 25.6705C22.1263 25.4581 20.95 25.2017 19.8354 24.9187C19.5347 24.839 19.234 24.7594 18.951 24.6799H18.9421C18.6414 24.5913 18.3584 24.5031 18.0665 24.4145C16.7575 24.0166 15.5633 23.5655 14.5285 23.079C14.2189 22.9375 13.9271 22.7871 13.644 22.6278C13.644 22.6278 13.6352 22.6278 13.6352 22.619C13.3256 22.4687 13.0338 22.3007 12.7596 22.1238C10.8314 20.912 9.73456 19.5144 9.73456 18.0374V11.2974H60Z" fill="#F6C358"/>
<path d="M60 11.2975C60 12.7746 58.9121 14.1632 56.9839 15.3662C56.7009 15.5518 56.409 15.7288 56.0905 15.8882C55.8163 16.0473 55.5244 16.1888 55.2149 16.3392C54.18 16.8257 52.9859 17.2679 51.6768 17.6747C51.385 17.7632 51.0931 17.8517 50.7924 17.9401H50.7836C50.5005 18.0198 50.2087 18.0995 49.908 18.1789C48.7935 18.4621 47.6171 18.7186 46.3699 18.9309C46.078 18.9841 45.7862 19.037 45.4855 19.0812H45.4766C45.1848 19.1255 44.9017 19.1785 44.601 19.2139C43.4601 19.382 42.2836 19.5146 41.063 19.6208C40.7711 19.6474 40.4792 19.6739 40.1785 19.6916H40.1697C39.8778 19.718 39.5948 19.7358 39.2941 19.7534C38.1443 19.8243 36.959 19.8685 35.756 19.8773C35.4642 19.8862 35.1723 19.8862 34.8716 19.8862H34.8628C34.5621 19.8862 34.279 19.8862 33.9872 19.8773C32.7842 19.8686 31.599 19.8243 30.4491 19.7534C30.1484 19.7358 29.8565 19.7181 29.5647 19.6916H29.5558C29.2551 19.6739 28.9721 19.6474 28.6802 19.6208C27.4596 19.5146 26.2833 19.382 25.1422 19.2139C24.8415 19.1785 24.5496 19.1255 24.2577 19.0812H24.2489C23.9482 19.037 23.6652 18.9841 23.3733 18.9309C22.1261 18.7186 20.9498 18.4621 19.8353 18.1789C19.5345 18.0995 19.2338 18.0198 18.9508 17.9401H18.942C18.6413 17.8518 18.3582 17.7633 18.0664 17.6747C16.7573 17.2767 15.5632 16.8257 14.5283 16.3392C14.2188 16.1976 13.9269 16.0473 13.6439 15.8882C13.6439 15.8882 13.635 15.8882 13.635 15.8793C13.3255 15.7288 13.0336 15.5608 12.7594 15.384C10.8313 14.1722 9.73441 12.7747 9.73441 11.2976C9.73441 6.5567 20.994 2.70898 34.8719 2.70898C48.7497 2.70898 60 6.55658 60 11.2975Z" fill="#FCD462"/>
<path d="M34.7927 17.4862C34.5431 17.4862 34.3052 17.4858 34.0607 17.4783C32.8967 17.469 31.7501 17.4288 30.5962 17.358C30.3146 17.3412 30.0482 17.3252 29.7821 17.301L29.6735 17.2913H29.6289C29.4016 17.2768 29.1843 17.2566 28.9625 17.2366C27.6582 17.1225 26.5472 16.9948 25.4915 16.8396C25.2532 16.8103 25.0863 16.7826 24.9204 16.7561L24.4325 16.6811C24.256 16.6526 23.802 16.5694 23.802 16.5694C22.6611 16.3753 21.5653 16.1425 20.4258 15.8526C20.159 15.7822 19.8715 15.7061 19.6012 15.6299L18.7598 15.3775C17.7668 15.0755 16.852 14.7427 16.0344 14.3868V14.3771L14.6962 13.7267L14.272 13.488H14.2548C14.1903 13.4497 14.1259 13.4095 14.0618 13.3681C12.6321 12.4697 12.1341 11.6939 12.1341 11.2973C12.1341 9.11575 20.7665 5.10864 34.8715 5.10864C48.9707 5.10864 57.6 9.11562 57.6 11.2973C57.6 11.6918 57.1058 12.461 55.7136 13.3302C55.4186 13.5224 55.2112 13.6442 55.0163 13.7418L54.8867 13.8118C54.664 13.9411 54.4253 14.0543 54.1742 14.1767C53.3112 14.5822 52.2246 14.9912 50.9644 15.383L50.1335 15.6299C49.8624 15.7061 49.5834 15.7822 49.2959 15.8579C48.1771 16.1424 47.0814 16.3752 45.9674 16.5646C45.7224 16.6091 45.4998 16.6498 45.2768 16.6849L44.7948 16.759C44.6381 16.7848 44.4819 16.8109 44.319 16.8302C43.1949 16.9951 42.0835 17.1223 40.8545 17.2294C40.5994 17.2528 40.355 17.2751 40.1049 17.2912L39.9518 17.3009C39.6858 17.3251 39.4276 17.3411 39.1537 17.3571C37.9927 17.4286 36.8463 17.4689 35.7376 17.4771C35.4388 17.4856 35.1876 17.486 34.9338 17.486C34.9134 17.4862 34.8156 17.4862 34.7927 17.4862Z" fill="#F6C358"/>
<path d="M14.5278 16.3392V23.0791C14.2183 22.9376 13.9264 22.7872 13.6434 22.628C13.6434 22.628 13.6345 22.628 13.6345 22.6191C13.325 22.4688 13.0331 22.3009 12.7589 22.1239V15.384C13.0331 15.5608 13.325 15.7289 13.6345 15.8794C13.6345 15.8882 13.6434 15.8882 13.6434 15.8882C13.9264 16.0473 14.2183 16.1978 14.5278 16.3392Z" fill="#DC8744"/>
<path d="M19.8349 18.1788V24.9189C19.5342 24.8392 19.2335 24.7596 18.9505 24.68H18.9416C18.6409 24.5915 18.3579 24.5032 18.066 24.4147V17.6748C18.3579 17.7632 18.6409 17.8517 18.9416 17.9402H18.9505C19.2335 18.0197 19.5342 18.0994 19.8349 18.1788Z" fill="#DC8744"/>
<path d="M25.1418 19.2137V25.9536C24.8411 25.9182 24.5492 25.8652 24.2574 25.821H24.2485C23.9478 25.7768 23.6648 25.7236 23.3729 25.6705V18.9307C23.6648 18.9838 23.9478 19.0368 24.2485 19.081H24.2574C24.5492 19.1253 24.8411 19.1785 25.1418 19.2137Z" fill="#DC8744"/>
<path d="M30.4489 19.7532V26.4932C30.1482 26.4755 29.8563 26.4579 29.5644 26.4312H29.5556C29.2549 26.4135 28.9719 26.3869 28.68 26.3604V19.6206C28.9719 19.6471 29.2549 19.6736 29.5556 19.6913H29.5644C29.8563 19.7179 30.1482 19.7355 30.4489 19.7532Z" fill="#DC8744"/>
<path d="M35.7558 19.8772V26.6171C35.464 26.6259 35.1721 26.6259 34.8714 26.6259H34.8625C34.5618 26.6259 34.2788 26.6259 33.9869 26.6171V19.8772C34.2788 19.886 34.5618 19.886 34.8625 19.886H34.8714C35.1721 19.886 35.464 19.886 35.7558 19.8772Z" fill="#DC8744"/>
<path d="M41.0629 19.6206V26.3604C40.771 26.3869 40.4792 26.4135 40.1785 26.4312H40.1696C39.8777 26.4577 39.5947 26.4755 39.294 26.4932V19.7532C39.5947 19.7355 39.8777 19.7179 40.1696 19.6913H40.1785C40.479 19.6735 40.771 19.6471 41.0629 19.6206Z" fill="#DC8744"/>
<path d="M46.3698 18.9307V25.6705C46.078 25.7236 45.7861 25.7766 45.4854 25.821H45.4765C45.1847 25.8652 44.9016 25.9181 44.6009 25.9536V19.2136C44.9016 19.1782 45.1847 19.1252 45.4765 19.0808H45.4854C45.7861 19.0368 46.078 18.9837 46.3698 18.9307Z" fill="#DC8744"/>
<path d="M51.6769 17.6748V24.4147C51.385 24.5032 51.0931 24.5915 50.7924 24.68H50.7836C50.5006 24.7596 50.2087 24.8392 49.908 24.9189V18.1788C50.2087 18.0994 50.5006 18.0197 50.7836 17.94H50.7924C51.093 17.8517 51.3849 17.7632 51.6769 17.6748Z" fill="#DC8744"/>
<path d="M56.9838 15.3662V22.1238C56.7096 22.2919 56.4178 22.4687 56.0994 22.6279C56.0994 22.6279 56.0905 22.6279 56.0905 22.6368C55.8164 22.7872 55.5245 22.9288 55.2149 23.0791V16.3392C55.5245 16.1888 55.8164 16.0473 56.0905 15.8882C56.4089 15.7287 56.7008 15.5519 56.9838 15.3662Z" fill="#DC8744"/>
</g>
<defs>
<clipPath id="clip0">
<rect width="60" height="60" fill="white"/>
</clipPath>
</defs>
</svg>
