<svg width="60" height="60" viewBox="0 0 60 60" fill="none" xmlns="http://www.w3.org/2000/svg">
<path fill-rule="evenodd" clip-rule="evenodd" d="M26.6681 34.8166C34.5743 34.8166 41.0253 28.3522 41.0253 20.4231C41.0253 12.4938 34.5743 6.02612 26.6681 6.02612C18.7588 6.02612 12.3109 12.4938 12.3109 20.4231C12.3109 28.3522 18.7588 34.8166 26.6681 34.8166Z" fill="#78C2A4"/>
<path fill-rule="evenodd" clip-rule="evenodd" d="M26.6681 34.8168C34.5975 34.8168 41.0254 28.3725 41.0254 20.4233C41.0254 15.6929 38.7498 11.4942 35.2352 8.86987C37.0324 11.2749 38.0954 14.2579 38.0954 17.4933C38.0954 25.4425 31.6676 31.8869 23.7382 31.8869C20.5259 31.8869 17.5595 30.8306 15.1677 29.0435C17.7887 32.548 21.9643 34.8168 26.6681 34.8168Z" fill="#66B394"/>
<path d="M32.1094 29.6179C32.1094 29.1328 32.5014 28.7375 32.9864 28.7375C33.4714 28.7375 33.8667 29.1328 33.8667 29.6179V38.2447C33.8667 38.7298 33.4714 39.1251 32.9864 39.1251C32.5014 39.1251 32.1094 38.7298 32.1094 38.2447V29.6179ZM32.1094 41.4171C32.1094 40.9288 32.5014 40.5368 32.9864 40.5368C33.4714 40.5368 33.8667 40.9288 33.8667 41.4171V45.6558C33.8667 46.1408 33.4714 46.5361 32.9864 46.5361C32.5014 46.5361 32.1094 46.1408 32.1094 45.6558V41.4171ZM55.18 29.6179C55.18 29.1328 55.572 28.7375 56.0603 28.7375C56.5453 28.7375 56.9372 29.1328 56.9372 29.6179V38.2447C56.9372 38.7298 56.5452 39.1251 56.0603 39.1251C55.572 39.1251 55.18 38.7298 55.18 38.2447V29.6179ZM55.18 41.4171C55.18 40.9288 55.572 40.5368 56.0603 40.5368C56.5453 40.5368 56.9372 40.9288 56.9372 41.4171V45.6558C56.9372 46.1408 56.5452 46.5361 56.0603 46.5361C55.572 46.5361 55.18 46.1408 55.18 45.6558V41.4171Z" fill="#917D52"/>
<path fill-rule="evenodd" clip-rule="evenodd" d="M32.1094 30.7705H56.9372V35.0756H32.1094V30.7705Z" fill="#B2A17D"/>
<path fill-rule="evenodd" clip-rule="evenodd" d="M30.5082 41.417H58.535C58.8572 41.417 59.123 41.1512 59.123 40.8291V38.8326C59.123 38.5104 58.8572 38.2446 58.535 38.2446H30.5082C30.1861 38.2446 29.9236 38.5104 29.9236 38.8326V40.8291C29.9236 41.1512 30.186 41.417 30.5082 41.417Z" fill="#A39474"/>
<path fill-rule="evenodd" clip-rule="evenodd" d="M32.1094 32.9001H56.9106V35.0559H32.1094V32.9001Z" fill="#A39474"/>
<path d="M25.7878 20.4228C25.7878 19.9378 26.1831 19.5425 26.6681 19.5425C27.1532 19.5425 27.5452 19.9379 27.5452 20.4228V25.4221L30.7507 22.8842C31.1327 22.5853 31.6808 22.6484 31.9798 23.0271C32.2821 23.4091 32.2157 23.9572 31.8369 24.2561L27.545 27.6544V45.1007C27.545 45.5858 27.1531 45.9778 26.668 45.9778C26.183 45.9778 25.7877 45.5858 25.7877 45.1007V20.4228H25.7878Z" fill="#917D52"/>
<path fill-rule="evenodd" clip-rule="evenodd" d="M11.6299 37.4207C17.5495 37.4207 22.3795 32.594 22.3795 26.6711C22.3795 20.7516 17.5495 15.9216 11.6299 15.9216C5.70691 15.9216 0.88031 20.7516 0.88031 26.6711C0.88031 32.5941 5.70703 37.4207 11.6299 37.4207Z" fill="#B3E59F"/>
<path fill-rule="evenodd" clip-rule="evenodd" d="M11.6299 37.4211C17.5662 37.4211 22.3795 32.611 22.3795 26.6715C22.3795 22.9543 20.4927 19.679 17.6225 17.749C18.7752 19.4597 19.4496 21.5226 19.4496 23.7416C19.4496 29.6812 14.6361 34.4911 8.70001 34.4911C6.48094 34.4911 4.41809 33.8201 2.70399 32.6675C4.63407 35.5342 7.91274 37.4211 11.6299 37.4211Z" fill="#95D6A4"/>
<path d="M12.507 29.9466L14.5399 28.3388C14.922 28.0365 15.47 28.1029 15.769 28.4817C16.0713 28.8603 16.0048 29.4118 15.6261 29.7107L12.507 32.1789V45.101C12.507 45.586 12.115 45.978 11.6299 45.978C11.1449 45.978 10.7496 45.586 10.7496 45.101V26.6713C10.7496 26.1864 11.1449 25.7944 11.6299 25.7944C12.115 25.7944 12.507 26.1864 12.507 26.6713V29.9466Z" fill="#917D52"/>
<path fill-rule="evenodd" clip-rule="evenodd" d="M4.43473 53.9736H55.5652C58.0035 53.9736 59.9999 51.9772 59.9999 49.5356C59.9999 47.0974 58.0034 45.1008 55.5652 45.1008H4.43473C1.99652 45.1009 0 47.0974 0 49.5357C0 51.9772 1.99652 53.9736 4.43473 53.9736Z" fill="#95D6A4"/>
<path fill-rule="evenodd" clip-rule="evenodd" d="M0 49.5358C0 51.9772 1.99652 53.9738 4.43473 53.9738H55.5652C58.0035 53.9738 59.9999 51.9774 59.9999 49.5358C59.9999 49.0242 59.9135 48.5292 59.7507 48.0708C59.1428 49.7981 57.4918 51.0439 55.5652 51.0439H4.43473C2.50805 51.0439 0.860391 49.7981 0.249141 48.0708C0.0897656 48.5292 0 49.0241 0 49.5358H0Z" fill="#78C2A4"/>
</svg>
