<svg width="400" height="286" viewBox="0 0 400 286" fill="none" xmlns="http://www.w3.org/2000/svg">
<g clip-path="url(#clip0)">
<path opacity="0.1" d="M359.192 242.073C356.209 243.611 353.085 244.938 350.006 246.241C338.618 251.045 327.053 255.9 314.823 257.55C291.841 260.628 268.13 252.251 245.554 257.479C226.643 261.843 211.003 275.217 192.528 281.173C183.937 283.941 174.999 285.026 165.981 285.026H164.817C163.707 285.026 162.601 284.984 161.491 284.942C152.348 284.599 143.166 283.267 134.203 281.521C105.902 276.075 77.0974 266.094 55.4597 247.719C118.463 236.205 248.243 218.538 359.192 242.073Z" fill="#252223"/>
<path opacity="0.3" d="M381.152 104.293V77.4869H365.236V104.293H346.387V62.8272H332.565V31.8325H321.257V0H297.801V31.8325H286.492V62.8272H273.089V25.5497H265.55V6.70157H260.942V25.5497H234.136V144.503H213.613V131.937H201.047V144.503H180.524V104.293H143.665V77.4869H127.749V104.293H126.911V155.812H110.157V125.654H90.0524V155.812H73.2984V62.8272H60.3141V31.8325H12.5654V62.8272H0V226.597H73.2984H126.911H180.524H234.136H273.089H346.387H400V104.293H381.152Z" fill="#63B3ED"/>
<path opacity="0.4" d="M25.5497 72.4608H7.95811V82.5131H25.5497V72.4608Z" fill="white"/>
<path opacity="0.4" d="M47.3298 82.5131H64.9215V72.4607H47.3298V82.5131Z" fill="white"/>
<path opacity="0.4" d="M25.5497 92.1466H7.95811V102.199H25.5497V92.1466Z" fill="white"/>
<path opacity="0.4" d="M47.3298 102.199H64.9215V92.1466H47.3298V102.199Z" fill="white"/>
<path opacity="0.4" d="M25.5497 111.832H7.95811V121.885H25.5497V111.832Z" fill="white"/>
<path opacity="0.4" d="M47.3298 121.885H64.9215V111.832H47.3298V121.885Z" fill="white"/>
<path opacity="0.4" d="M25.5497 131.518H7.95811V141.571H25.5497V131.518Z" fill="white"/>
<path opacity="0.4" d="M47.3298 141.571H64.9215V131.518H47.3298V141.571Z" fill="white"/>
<path opacity="0.4" d="M25.5497 151.204H7.95811V161.257H25.5497V151.204Z" fill="white"/>
<path opacity="0.4" d="M47.3298 161.257H64.9215V151.204H47.3298V161.257Z" fill="white"/>
<path opacity="0.4" d="M25.5497 170.89H7.95811V180.942H25.5497V170.89Z" fill="white"/>
<path opacity="0.4" d="M47.3298 180.942H64.9215V170.89H47.3298V180.942Z" fill="white"/>
<path opacity="0.4" d="M25.5497 190.576H7.95811V200.628H25.5497V190.576Z" fill="white"/>
<path opacity="0.4" d="M47.3298 200.628H64.9215V190.576H47.3298V200.628Z" fill="white"/>
<path opacity="0.4" d="M120.628 165.864H79.5811V170.89H120.628V165.864Z" fill="white"/>
<path opacity="0.4" d="M120.628 173.403H79.5811V178.429H120.628V173.403Z" fill="white"/>
<path opacity="0.4" d="M120.628 180.942H79.5811V185.969H120.628V180.942Z" fill="white"/>
<path opacity="0.4" d="M227.853 168.377H186.806V173.403H227.853V168.377Z" fill="white"/>
<path opacity="0.4" d="M227.853 175.916H186.806V180.942H227.853V175.916Z" fill="white"/>
<path opacity="0.4" d="M227.853 183.456H186.806V188.482H227.853V183.456Z" fill="white"/>
<path opacity="0.4" d="M120.628 188.482H79.5811V193.508H120.628V188.482Z" fill="white"/>
<path opacity="0.4" d="M120.628 196.021H79.5811V201.047H120.628V196.021Z" fill="white"/>
<path opacity="0.4" d="M120.628 203.56H79.5811V208.586H120.628V203.56Z" fill="white"/>
<path opacity="0.4" d="M147.016 113.927H135.707V128.586H147.016V113.927Z" fill="white"/>
<path opacity="0.4" d="M160.419 128.586H171.728V113.927H160.419V128.586Z" fill="white"/>
<path opacity="0.4" d="M147.016 137.382H135.707V152.042H147.016V137.382Z" fill="white"/>
<path opacity="0.4" d="M160.419 152.042H171.728V137.382H160.419V152.042Z" fill="white"/>
<path opacity="0.4" d="M147.016 160.838H135.707V175.497H147.016V160.838Z" fill="white"/>
<path opacity="0.4" d="M160.419 175.497H171.728V160.838H160.419V175.497Z" fill="white"/>
<path opacity="0.4" d="M147.016 184.293H135.707V198.953H147.016V184.293Z" fill="white"/>
<path opacity="0.4" d="M160.419 198.953H171.728V184.293H160.419V198.953Z" fill="white"/>
<path opacity="0.4" d="M249.215 35.1832H234.136V54.4502H249.215V35.1832Z" fill="white"/>
<path opacity="0.4" d="M249.215 62.8272H234.136V82.0942H249.215V62.8272Z" fill="white"/>
<path opacity="0.4" d="M249.215 90.4712H234.136V109.738H249.215V90.4712Z" fill="white"/>
<path opacity="0.4" d="M249.215 118.115H234.136V137.382H249.215V118.115Z" fill="white"/>
<path opacity="0.4" d="M249.215 145.759H234.136V165.026H249.215V145.759Z" fill="white"/>
<path opacity="0.4" d="M249.215 173.403H234.136V192.67H249.215V173.403Z" fill="white"/>
<path opacity="0.4" d="M337.801 74.555H281.675V90.8901H337.801V74.555Z" fill="white"/>
<path opacity="0.4" d="M338.01 109.738H281.885V126.073H338.01V109.738Z" fill="white"/>
<path opacity="0.4" d="M338.22 144.922H282.094V161.257H338.22V144.922Z" fill="white"/>
<path opacity="0.4" d="M338.429 180.105H282.304V196.44H338.429V180.105Z" fill="white"/>
<path opacity="0.4" d="M20.1047 40.6283H12.5654V56.5445H20.1047V40.6283Z" fill="white"/>
<path opacity="0.4" d="M400 113.927H381.152V138.22H400V113.927Z" fill="white"/>
<path opacity="0.4" d="M400 149.11H381.152V173.403H400V149.11Z" fill="white"/>
<path opacity="0.4" d="M400 184.293H381.152V208.586H400V184.293Z" fill="white"/>
<path d="M20.8042 200.859C20.8042 200.859 -12.1717 220.754 48.6157 251.384C48.6157 251.384 62.0188 226.521 47.2 206.249C44.3258 202.297 40.1015 199.536 35.3276 198.49C30.5538 197.444 25.5621 198.185 21.2984 200.574L20.8042 200.859Z" fill="#63B3ED"/>
<path d="M21.1853 200.44C21.1853 200.44 49.4031 222.031 48.6157 251.384" stroke="#535461" stroke-miterlimit="10"/>
<path d="M50.1487 252.515C50.1487 252.515 39.8157 217.432 52.088 191.61C57.2356 180.775 58.9445 168.607 56.5654 156.846C55.4292 151.262 53.7818 145.794 51.644 140.511" stroke="#535461" stroke-width="2" stroke-miterlimit="10"/>
<path d="M59.267 124.214C59.267 128.511 51.4848 140.968 51.4848 140.968C51.4848 140.968 43.6984 128.498 43.6984 124.214C43.6744 123.176 43.8579 122.144 44.2383 121.179C44.6187 120.213 45.1882 119.334 45.9134 118.592C46.6387 117.849 47.5049 117.259 48.4613 116.857C49.4178 116.454 50.445 116.247 51.4827 116.247C52.5204 116.247 53.5477 116.454 54.5041 116.857C55.4605 117.259 56.3268 117.849 57.052 118.592C57.7772 119.334 58.3468 120.213 58.7271 121.179C59.1075 122.144 59.2911 123.176 59.267 124.214Z" fill="#63B3ED"/>
<path d="M72.1508 148.029C69.8136 151.64 56.5026 157.872 56.5026 157.872C56.5026 157.872 56.7414 143.175 59.0785 139.569C60.2137 137.865 61.974 136.677 63.9785 136.262C65.9829 135.847 68.0702 136.238 69.7887 137.35C71.5072 138.462 72.7185 140.206 73.1606 142.205C73.6027 144.204 73.2399 146.296 72.1508 148.029V148.029Z" fill="#63B3ED"/>
<path d="M71.5854 188.729C67.7487 190.664 53.11 189.324 53.11 189.324C53.11 189.324 60.7372 176.758 64.578 174.823C66.4185 173.925 68.5388 173.787 70.4798 174.441C72.4207 175.095 74.0258 176.487 74.9475 178.316C75.8692 180.145 76.0331 182.264 75.4038 184.213C74.7745 186.162 73.4026 187.784 71.5854 188.729V188.729Z" fill="#63B3ED"/>
<path d="M64.2262 219.426C60.7707 221.981 46.1194 223.137 46.1194 223.137C46.1194 223.137 51.5099 209.462 54.9696 206.907C56.6323 205.727 58.6913 205.247 60.7044 205.568C62.7175 205.89 64.5241 206.989 65.7362 208.628C66.9482 210.267 67.469 212.316 67.1866 214.335C66.9043 216.355 65.8414 218.182 64.2262 219.426V219.426Z" fill="#63B3ED"/>
<path d="M40.155 158.706C43.2377 161.701 57.6084 164.804 57.6084 164.804C57.6084 164.804 54.09 150.534 51.0031 147.539C50.2699 146.827 49.4036 146.266 48.4536 145.889C47.5037 145.511 46.4886 145.324 45.4665 145.339C44.4444 145.354 43.4352 145.57 42.4965 145.975C41.5579 146.38 40.7081 146.965 39.9958 147.698C39.2835 148.432 38.7226 149.298 38.3451 150.248C37.9676 151.198 37.7809 152.213 37.7957 153.235C37.8105 154.257 38.0264 155.266 38.4312 156.205C38.836 157.144 39.4218 157.993 40.155 158.706V158.706Z" fill="#63B3ED"/>
<path d="M32.0042 194.714C35.8408 196.653 50.4796 195.313 50.4796 195.313C50.4796 195.313 42.8523 182.748 39.0157 180.813C38.1005 180.328 37.0979 180.031 36.0665 179.938C35.035 179.846 33.9955 179.96 33.0087 180.274C32.022 180.588 31.1078 181.096 30.3198 181.768C29.5317 182.44 28.8856 183.262 28.4193 184.187C27.9529 185.112 27.6757 186.12 27.6038 187.153C27.5319 188.186 27.6669 189.223 28.0007 190.204C28.3345 191.184 28.8606 192.088 29.548 192.862C30.2354 193.637 31.0704 194.266 32.0042 194.714V194.714Z" fill="#63B3ED"/>
<path d="M28.8838 230.802C32.3393 233.357 46.9948 234.513 46.9948 234.513C46.9948 234.513 41.6 220.838 38.1403 218.283C36.4776 217.103 34.4186 216.623 32.4055 216.944C30.3924 217.266 28.5858 218.365 27.3738 220.004C26.1618 221.643 25.641 223.692 25.9233 225.711C26.2056 227.73 27.2686 229.558 28.8838 230.802V230.802Z" fill="#63B3ED"/>
<path opacity="0.25" d="M59.267 124.214C59.267 128.511 51.4848 140.968 51.4848 140.968C51.4848 140.968 43.6984 128.498 43.6984 124.214C43.6744 123.176 43.8579 122.144 44.2383 121.179C44.6187 120.213 45.1882 119.334 45.9134 118.592C46.6387 117.849 47.5049 117.259 48.4613 116.857C49.4178 116.454 50.445 116.247 51.4827 116.247C52.5204 116.247 53.5477 116.454 54.5041 116.857C55.4605 117.259 56.3268 117.849 57.052 118.592C57.7772 119.334 58.3468 120.213 58.7271 121.179C59.1075 122.144 59.2911 123.176 59.267 124.214Z" fill="black"/>
<path opacity="0.25" d="M72.1508 148.029C69.8136 151.64 56.5026 157.872 56.5026 157.872C56.5026 157.872 56.7414 143.175 59.0785 139.569C60.2137 137.865 61.974 136.677 63.9785 136.262C65.9829 135.847 68.0702 136.238 69.7887 137.35C71.5072 138.462 72.7185 140.206 73.1606 142.205C73.6027 144.204 73.2399 146.296 72.1508 148.029V148.029Z" fill="black"/>
<path opacity="0.25" d="M71.5854 188.729C67.7487 190.664 53.11 189.324 53.11 189.324C53.11 189.324 60.7372 176.758 64.578 174.823C66.4185 173.925 68.5388 173.787 70.4798 174.441C72.4207 175.095 74.0258 176.487 74.9475 178.316C75.8692 180.145 76.0331 182.264 75.4038 184.213C74.7745 186.162 73.4026 187.784 71.5854 188.729V188.729Z" fill="black"/>
<path opacity="0.25" d="M64.2262 219.426C60.7707 221.981 46.1194 223.137 46.1194 223.137C46.1194 223.137 51.5099 209.462 54.9696 206.907C56.6323 205.727 58.6913 205.247 60.7044 205.568C62.7175 205.89 64.5241 206.989 65.7362 208.628C66.9482 210.267 67.469 212.316 67.1866 214.335C66.9043 216.355 65.8414 218.182 64.2262 219.426V219.426Z" fill="black"/>
<path opacity="0.25" d="M40.155 158.706C43.2377 161.701 57.6084 164.804 57.6084 164.804C57.6084 164.804 54.09 150.534 51.0031 147.539C50.2699 146.827 49.4036 146.266 48.4536 145.889C47.5037 145.511 46.4886 145.324 45.4665 145.339C44.4444 145.354 43.4352 145.57 42.4965 145.975C41.5579 146.38 40.7081 146.965 39.9958 147.698C39.2835 148.432 38.7226 149.298 38.3451 150.248C37.9676 151.198 37.7809 152.213 37.7957 153.235C37.8105 154.257 38.0264 155.266 38.4312 156.205C38.836 157.144 39.4218 157.993 40.155 158.706V158.706Z" fill="black"/>
<path opacity="0.25" d="M32.0042 194.714C35.8408 196.653 50.4796 195.313 50.4796 195.313C50.4796 195.313 42.8523 182.748 39.0157 180.813C38.1005 180.328 37.0979 180.031 36.0665 179.938C35.035 179.846 33.9955 179.96 33.0087 180.274C32.022 180.588 31.1078 181.096 30.3198 181.768C29.5317 182.44 28.8856 183.262 28.4193 184.187C27.9529 185.112 27.6757 186.12 27.6038 187.153C27.5319 188.186 27.6669 189.223 28.0007 190.204C28.3345 191.184 28.8606 192.088 29.548 192.862C30.2354 193.637 31.0704 194.266 32.0042 194.714V194.714Z" fill="black"/>
<path opacity="0.25" d="M28.8838 230.802C32.3393 233.357 46.9948 234.513 46.9948 234.513C46.9948 234.513 41.6 220.838 38.1403 218.283C36.4776 217.103 34.4186 216.623 32.4055 216.944C30.3924 217.266 28.5858 218.365 27.3738 220.004C26.1618 221.643 25.641 223.692 25.9233 225.711C26.2056 227.73 27.2686 229.558 28.8838 230.802V230.802Z" fill="black"/>
<path d="M372.683 243.456C372.683 243.456 362.35 208.373 374.622 182.551C379.77 171.715 381.483 159.548 379.104 147.786C377.963 142.203 376.316 136.735 374.182 131.451" stroke="#535461" stroke-width="2" stroke-miterlimit="10"/>
<path d="M381.818 115.154C381.818 119.451 374.031 131.908 374.031 131.908C374.031 131.908 366.245 119.439 366.245 115.154C366.245 113.089 367.065 111.108 368.526 109.648C369.986 108.188 371.966 107.368 374.031 107.368C376.096 107.368 378.077 108.188 379.537 109.648C380.997 111.108 381.818 113.089 381.818 115.154V115.154Z" fill="#63B3ED"/>
<path d="M394.685 138.97C392.348 142.58 379.037 148.813 379.037 148.813C379.037 148.813 379.28 134.115 381.617 130.509C382.739 128.776 384.503 127.56 386.522 127.128C388.541 126.696 390.648 127.083 392.381 128.205C394.114 129.327 395.33 131.092 395.762 133.11C396.194 135.129 395.807 137.237 394.685 138.97V138.97Z" fill="#63B3ED"/>
<path d="M394.124 179.669C390.283 181.604 375.644 180.264 375.644 180.264C375.644 180.264 383.275 167.698 387.112 165.763C388.956 164.833 391.094 164.674 393.055 165.321C395.017 165.967 396.641 167.366 397.571 169.21C398.5 171.054 398.66 173.192 398.013 175.154C397.367 177.115 395.968 178.739 394.124 179.669V179.669Z" fill="#63B3ED"/>
<path d="M386.764 210.367C383.305 212.922 368.653 214.078 368.653 214.078C368.653 214.078 374.048 200.402 377.504 197.847C379.165 196.639 381.236 196.136 383.267 196.448C385.297 196.76 387.122 197.862 388.344 199.513C389.566 201.165 390.085 203.232 389.789 205.265C389.493 207.298 388.406 209.132 386.764 210.367V210.367Z" fill="#63B3ED"/>
<path d="M362.689 149.634C365.776 152.628 380.142 155.732 380.142 155.732C380.142 155.732 376.624 141.462 373.541 138.467C372.812 137.738 371.944 137.161 370.99 136.77C370.035 136.378 369.012 136.181 367.981 136.188C366.949 136.196 365.929 136.408 364.98 136.813C364.031 137.219 363.173 137.808 362.454 138.548C361.735 139.288 361.17 140.163 360.792 141.123C360.414 142.083 360.231 143.109 360.253 144.14C360.275 145.171 360.501 146.188 360.92 147.131C361.338 148.074 361.939 148.925 362.689 149.634V149.634Z" fill="#63B3ED"/>
<path d="M354.555 185.654C358.396 187.594 373.035 186.253 373.035 186.253C373.035 186.253 365.407 173.688 361.566 171.753C360.651 171.268 359.649 170.971 358.617 170.878C357.586 170.786 356.546 170.9 355.56 171.215C354.573 171.529 353.659 172.037 352.871 172.709C352.083 173.38 351.436 174.203 350.97 175.127C350.504 176.052 350.227 177.06 350.155 178.093C350.083 179.127 350.218 180.164 350.552 181.144C350.885 182.124 351.411 183.028 352.099 183.803C352.786 184.577 353.621 185.207 354.555 185.654V185.654Z" fill="#63B3ED"/>
<path d="M351.418 221.742C354.877 224.297 369.529 225.453 369.529 225.453C369.529 225.453 364.134 211.782 360.679 209.223C359.017 208.015 356.946 207.512 354.915 207.824C352.885 208.136 351.06 209.238 349.838 210.889C348.617 212.541 348.097 214.608 348.393 216.641C348.689 218.674 349.776 220.508 351.418 221.742V221.742Z" fill="#63B3ED"/>
<path d="M326.073 240.042C326.073 240.042 320.519 221.194 327.116 207.313C329.917 201.51 330.762 194.956 329.525 188.632C328.912 185.634 328.026 182.698 326.877 179.862" stroke="#535461" stroke-width="2" stroke-miterlimit="10"/>
<path d="M330.982 171.091C330.982 173.403 326.794 180.105 326.794 180.105C326.794 180.105 322.605 173.403 322.605 171.091C322.605 169.98 323.047 168.915 323.832 168.129C324.618 167.344 325.683 166.903 326.794 166.903C327.905 166.903 328.97 167.344 329.755 168.129C330.541 168.915 330.982 169.98 330.982 171.091Z" fill="#63B3ED"/>
<path d="M337.897 183.891C336.641 185.83 329.487 189.181 329.487 189.181C329.487 189.181 329.617 181.282 330.873 179.342C331.5 178.465 332.44 177.863 333.499 177.662C334.558 177.461 335.654 177.675 336.558 178.261C337.463 178.847 338.107 179.759 338.357 180.808C338.606 181.856 338.441 182.961 337.897 183.891V183.891Z" fill="#63B3ED"/>
<path d="M337.596 205.759C335.531 206.798 327.665 206.078 327.665 206.078C327.665 206.078 331.765 199.326 333.826 198.287C334.81 197.842 335.928 197.795 336.946 198.155C337.964 198.514 338.804 199.253 339.29 200.217C339.777 201.181 339.872 202.296 339.556 203.329C339.24 204.361 338.538 205.232 337.596 205.759V205.759Z" fill="#63B3ED"/>
<path d="M333.638 222.258C331.782 223.631 323.908 224.251 323.908 224.251C323.908 224.251 326.806 216.905 328.666 215.531C329.105 215.168 329.613 214.899 330.159 214.739C330.705 214.579 331.278 214.532 331.843 214.602C332.408 214.671 332.953 214.854 333.445 215.141C333.937 215.428 334.365 215.812 334.703 216.269C335.041 216.727 335.283 217.249 335.413 217.803C335.543 218.357 335.558 218.932 335.458 219.493C335.359 220.053 335.146 220.587 334.833 221.063C334.52 221.538 334.113 221.945 333.638 222.258V222.258Z" fill="#63B3ED"/>
<path d="M320.704 189.629C322.379 191.238 330.082 192.905 330.082 192.905C330.082 192.905 328.193 185.236 326.534 183.627C326.147 183.214 325.679 182.883 325.16 182.656C324.642 182.428 324.082 182.308 323.515 182.303C322.949 182.298 322.387 182.408 321.864 182.626C321.341 182.844 320.868 183.166 320.473 183.573C320.078 183.979 319.77 184.461 319.567 184.99C319.364 185.519 319.271 186.084 319.292 186.65C319.314 187.217 319.45 187.773 319.692 188.285C319.935 188.797 320.279 189.254 320.704 189.629V189.629Z" fill="#63B3ED"/>
<path d="M316.322 208.98C318.387 210.019 326.253 209.303 326.253 209.303C326.253 209.303 322.153 202.551 320.088 201.508C319.104 201.063 317.986 201.016 316.968 201.376C315.95 201.735 315.11 202.474 314.624 203.438C314.137 204.402 314.042 205.517 314.358 206.55C314.674 207.582 315.376 208.453 316.318 208.98H316.322Z" fill="#63B3ED"/>
<path d="M314.647 228.377C316.503 229.751 324.377 230.371 324.377 230.371C324.377 230.371 321.466 223.02 319.623 221.646C318.728 221.038 317.632 220.799 316.565 220.98C315.498 221.162 314.543 221.749 313.9 222.62C313.256 223.49 312.975 224.576 313.114 225.649C313.253 226.722 313.803 227.7 314.647 228.377V228.377Z" fill="#63B3ED"/>
<path opacity="0.1" d="M110.861 19.9707H107.979C108.252 19.9831 108.524 19.9401 108.779 19.8444C109.035 19.7486 109.268 19.6021 109.466 19.4136C109.663 19.2251 109.82 18.9986 109.927 18.7477C110.035 18.4968 110.09 18.2268 110.09 17.9539C110.09 17.681 110.035 17.411 109.927 17.1601C109.82 16.9093 109.663 16.6827 109.466 16.4942C109.268 16.3057 109.035 16.1592 108.779 16.0634C108.524 15.9677 108.252 15.9247 107.979 15.9372H84.6367C84.3641 15.9247 84.0918 15.9677 83.8363 16.0634C83.5808 16.1592 83.3473 16.3057 83.1501 16.4942C82.9528 16.6827 82.7957 16.9093 82.6885 17.1601C82.5812 17.411 82.5259 17.681 82.5259 17.9539C82.5259 18.2268 82.5812 18.4968 82.6885 18.7477C82.7957 18.9986 82.9528 19.2251 83.1501 19.4136C83.3473 19.6021 83.5808 19.7486 83.8363 19.8444C84.0918 19.9401 84.3641 19.9831 84.6367 19.9707H87.5183C86.9829 19.9707 86.4694 20.1834 86.0908 20.562C85.7122 20.9406 85.4995 21.4541 85.4995 21.9895C85.4995 22.5249 85.7122 23.0384 86.0908 23.417C86.4694 23.7957 86.9829 24.0084 87.5183 24.0084H83.4848C83.2122 23.9959 82.94 24.0389 82.6845 24.1346C82.429 24.2304 82.1955 24.3769 81.9982 24.5654C81.8009 24.7539 81.6439 24.9805 81.5366 25.2313C81.4293 25.4822 81.374 25.7522 81.374 26.0251C81.374 26.298 81.4293 26.568 81.5366 26.8189C81.6439 27.0698 81.8009 27.2963 81.9982 27.4848C82.1955 27.6733 82.429 27.8198 82.6845 27.9156C82.94 28.0113 83.2122 28.0543 83.4848 28.0419H106.827C107.1 28.0543 107.372 28.0113 107.628 27.9156C107.883 27.8198 108.117 27.6733 108.314 27.4848C108.511 27.2963 108.668 27.0698 108.775 26.8189C108.883 26.568 108.938 26.298 108.938 26.0251C108.938 25.7522 108.883 25.4822 108.775 25.2313C108.668 24.9805 108.511 24.7539 108.314 24.5654C108.117 24.3769 107.883 24.2304 107.628 24.1346C107.372 24.0389 107.1 23.9959 106.827 24.0084H110.861C111.396 24.0084 111.91 23.7957 112.288 23.417C112.667 23.0384 112.88 22.5249 112.88 21.9895C112.88 21.4541 112.667 20.9406 112.288 20.562C111.91 20.1834 111.396 19.9707 110.861 19.9707V19.9707Z" fill="#252223"/>
<path opacity="0.1" d="M213.897 70.6513H211.016C211.288 70.6637 211.561 70.6208 211.816 70.525C212.072 70.4293 212.305 70.2828 212.502 70.0943C212.7 69.9058 212.857 69.6792 212.964 69.4283C213.071 69.1775 213.126 68.9074 213.126 68.6346C213.126 68.3617 213.071 68.0917 212.964 67.8408C212.857 67.5899 212.7 67.3634 212.502 67.1749C212.305 66.9864 212.072 66.8399 211.816 66.7441C211.561 66.6484 211.288 66.6054 211.016 66.6178H187.673C187.401 66.6054 187.128 66.6484 186.873 66.7441C186.617 66.8399 186.384 66.9864 186.187 67.1749C185.989 67.3634 185.832 67.5899 185.725 67.8408C185.618 68.0917 185.563 68.3617 185.563 68.6346C185.563 68.9074 185.618 69.1775 185.725 69.4283C185.832 69.6792 185.989 69.9058 186.187 70.0943C186.384 70.2828 186.617 70.4293 186.873 70.525C187.128 70.6208 187.401 70.6637 187.673 70.6513H190.555C190.02 70.6513 189.506 70.864 189.127 71.2426C188.749 71.6212 188.536 72.1347 188.536 72.6702C188.536 73.2056 188.749 73.7191 189.127 74.0977C189.506 74.4763 190.02 74.689 190.555 74.689H186.521C186.249 74.6766 185.977 74.7196 185.721 74.8153C185.466 74.911 185.232 75.0576 185.035 75.2461C184.838 75.4346 184.681 75.6611 184.573 75.912C184.466 76.1629 184.411 76.4329 184.411 76.7058C184.411 76.9786 184.466 77.2487 184.573 77.4995C184.681 77.7504 184.838 77.977 185.035 78.1655C185.232 78.354 185.466 78.5005 185.721 78.5962C185.977 78.692 186.249 78.735 186.521 78.7225H209.864C210.136 78.735 210.409 78.692 210.664 78.5962C210.92 78.5005 211.153 78.354 211.35 78.1655C211.548 77.977 211.705 77.7504 211.812 77.4995C211.919 77.2487 211.975 76.9786 211.975 76.7058C211.975 76.4329 211.919 76.1629 211.812 75.912C211.705 75.6611 211.548 75.4346 211.35 75.2461C211.153 75.0576 210.92 74.911 210.664 74.8153C210.409 74.7196 210.136 74.6766 209.864 74.689H213.897C214.163 74.689 214.425 74.6368 214.67 74.5353C214.915 74.4339 215.137 74.2852 215.325 74.0977C215.512 73.9103 215.661 73.6877 215.763 73.4428C215.864 73.1978 215.916 72.9353 215.916 72.6702C215.916 72.4051 215.864 72.1425 215.763 71.8976C215.661 71.6527 215.512 71.4301 215.325 71.2426C215.137 71.0552 214.915 70.9065 214.67 70.805C214.425 70.7035 214.163 70.6513 213.897 70.6513V70.6513Z" fill="#252223"/>
<path opacity="0.1" d="M389.395 4.47328H386.513C386.786 4.48571 387.058 4.44275 387.313 4.34701C387.569 4.25126 387.802 4.10471 388 3.91621C388.197 3.72772 388.354 3.50118 388.461 3.2503C388.569 2.99942 388.624 2.72939 388.624 2.45653C388.624 2.18367 388.569 1.91364 388.461 1.66276C388.354 1.41188 388.197 1.18534 388 0.996846C387.802 0.80835 387.569 0.661803 387.313 0.566056C387.058 0.470309 386.786 0.427352 386.513 0.439777H363.171C362.898 0.427352 362.626 0.470309 362.37 0.566056C362.115 0.661803 361.881 0.80835 361.684 0.996846C361.487 1.18534 361.33 1.41188 361.223 1.66276C361.115 1.91364 361.06 2.18367 361.06 2.45653C361.06 2.72939 361.115 2.99942 361.223 3.2503C361.33 3.50118 361.487 3.72772 361.684 3.91621C361.881 4.10471 362.115 4.25126 362.37 4.34701C362.626 4.44275 362.898 4.48571 363.171 4.47328H366.052C365.517 4.47328 365.003 4.68598 364.625 5.06459C364.246 5.4432 364.034 5.9567 364.034 6.49213C364.034 7.02756 364.246 7.54106 364.625 7.91967C365.003 8.29828 365.517 8.51098 366.052 8.51098H362.019C361.746 8.49856 361.474 8.54151 361.219 8.63726C360.963 8.73301 360.73 8.87956 360.532 9.06805C360.335 9.25655 360.178 9.48308 360.071 9.73396C359.963 9.98485 359.908 10.2549 359.908 10.5277C359.908 10.8006 359.963 11.0706 360.071 11.3215C360.178 11.5724 360.335 11.7989 360.532 11.9874C360.73 12.1759 360.963 12.3225 361.219 12.4182C361.474 12.514 361.746 12.5569 362.019 12.5445H385.361C385.634 12.5569 385.906 12.514 386.162 12.4182C386.417 12.3225 386.651 12.1759 386.848 11.9874C387.045 11.7989 387.202 11.5724 387.309 11.3215C387.417 11.0706 387.472 10.8006 387.472 10.5277C387.472 10.2549 387.417 9.98485 387.309 9.73396C387.202 9.48308 387.045 9.25655 386.848 9.06805C386.651 8.87956 386.417 8.73301 386.162 8.63726C385.906 8.54151 385.634 8.49856 385.361 8.51098H389.395C389.93 8.51098 390.444 8.29828 390.822 7.91967C391.201 7.54106 391.414 7.02756 391.414 6.49213C391.414 5.9567 391.201 5.4432 390.822 5.06459C390.444 4.68598 389.93 4.47328 389.395 4.47328V4.47328Z" fill="#252223"/>
<path d="M295.497 221.504C295.664 221.504 295.824 221.437 295.942 221.32C296.059 221.202 296.126 221.042 296.126 220.875C296.126 220.709 296.059 220.549 295.942 220.431C295.824 220.313 295.664 220.247 295.497 220.247C295.331 220.247 295.171 220.313 295.053 220.431C294.935 220.549 294.869 220.709 294.869 220.875C294.869 221.042 294.935 221.202 295.053 221.32C295.171 221.437 295.331 221.504 295.497 221.504Z" fill="#535461"/>
<g opacity="0.5">
<path opacity="0.5" d="M218.651 185.554L212.565 156.905H213.19L213.093 156.419H213.269L210.119 140.921C210.119 140.921 210.279 124.733 211.045 118.471C211.606 113.902 212.494 108.08 211.845 103.179C211.935 103.044 212.017 102.904 212.092 102.76C212.361 102.239 212.523 101.669 212.57 101.085C212.804 99.7151 212.62 98.3065 212.042 97.0429L218.371 93.089C218.513 93.089 218.66 93.1183 218.79 93.1267C218.79 93.0681 218.731 92.9759 218.685 92.8545C221.679 93.0119 224.645 92.209 227.151 90.5628C229.657 88.9166 231.571 86.5131 232.616 83.7026C233.173 84.5393 233.862 85.2804 234.655 85.8974C236.36 87.1749 239.045 87.4597 240.465 85.8722C240.982 85.2387 241.332 84.4855 241.483 83.6817C241.566 83.3215 241.625 82.9529 241.675 82.5885C242.48 78.3079 240.716 73.8932 238.442 70.1403C235.598 65.4534 231.824 61.2105 227.028 58.5466C222.232 55.8827 216.348 54.9278 211.158 56.7037C205.969 58.4796 200.741 63.3005 200.268 68.7665C200.034 71.5602 200.369 72.8544 199.791 75.5979C199.502 76.9633 200.126 79.623 200.117 81.1309C200.067 81.4078 200.033 81.6876 200.017 81.9686C199.933 83.644 200.599 85.2272 201.085 86.8356C194.241 87.1791 176.243 88.5654 171.045 93.8513C164.578 100.423 148.72 102.773 148.72 102.773L122.312 108.088L113.097 112L113.202 112.419L113.018 112.498C113.018 112.498 113.345 113.717 113.814 115.326C111.758 117.186 110.412 119.703 110.006 122.446C109.495 125.29 109.768 128.951 111.569 133.621C111.569 133.621 120.662 150.32 121.29 157.055L132.766 179.962C131.782 181.927 121.948 201.78 120.255 212.892C120.122 213.692 120.031 214.499 119.983 215.309C119.983 215.309 119.92 215.895 119.765 216.871C119.091 220.988 116.959 231.112 111.753 235.845L111.82 235.904L111.669 236.05L111.786 236.151C110.224 239.137 112.482 243.183 112.482 243.183L115.049 254.651L117.923 255.116L120.947 253.885L122.622 257.106C122.622 257.106 135.669 259.2 139.376 259.079C143.083 258.957 136.235 252.674 133.835 250.81C132.503 249.78 131.46 245.546 130.798 241.981C131.147 241.698 131.461 241.373 131.732 241.014C131.732 241.014 130.136 232.637 134.94 221.143C136.988 216.251 139.192 210.626 141.055 205.78C142.057 212.289 143.108 218.995 143.883 223.573C145.009 230.203 144.863 234.249 144.515 236.532C144.451 237.328 144.263 238.11 143.958 238.848C143.974 238.87 143.988 238.892 144 238.915C143.978 238.974 143.951 239.032 143.92 239.087C143.946 239.129 143.971 239.166 143.992 239.208C141.37 242.207 144.101 247.099 144.101 247.099L146.668 258.534L149.541 258.999L152.565 257.768L154.241 260.988C154.241 260.988 167.288 263.083 170.995 262.961C174.702 262.84 167.853 256.557 165.449 254.693C163.577 253.24 162.279 245.437 161.797 242.09C162.145 242.057 162.337 242.031 162.337 242.031L162.299 241.801H162.379L160.737 232.201C157.931 229.784 158.32 195.451 158.32 195.451C158.32 195.451 156.859 199.041 156.813 198.752C156.955 198.174 157.483 196.54 158.706 193.06C159.424 191.064 159.956 189.005 160.293 186.911C161.621 178.739 159.146 173.742 159.146 173.742C159.309 172.101 157.579 165.721 155.535 158.928L161.956 146.413C162.849 146.749 163.818 146.828 164.754 146.643L169.617 137.847C169.617 137.847 179.669 131.858 182.547 132.323C185.223 132.741 193.608 130.907 196.85 127.414C197.083 127.158 197.296 126.885 197.487 126.597C200.096 122.597 199.024 147.481 199.024 147.481L197.629 156.101L197.554 156.578L201.713 156.662L211.514 190.279C211.514 190.279 212.13 201.68 223.267 204.214C234.404 206.748 218.651 185.554 218.651 185.554ZM151.707 146.702C151.104 144.842 150.576 143.238 150.178 142.036L152.251 140.419C152.251 140.419 152.511 140.637 152.951 140.984L151.707 146.702Z" fill="url(#paint0_linear)"/>
</g>
<path d="M161.814 238.454C161.814 238.454 163.234 250.417 165.583 252.235C167.933 254.052 174.601 260.155 170.986 260.289C167.372 260.423 154.651 258.371 154.651 258.371L153.005 255.229L150.073 256.427L147.271 255.975L144.758 244.796C144.758 244.796 141.231 238.48 146.195 235.929C151.158 233.378 161.814 238.454 161.814 238.454Z" fill="#3A384D"/>
<path opacity="0.1" d="M149.881 140.381C149.881 140.381 159.745 169.738 159.372 173.508C159.372 173.508 162.986 180.796 158.999 192.126C155.012 203.456 158.58 194.693 158.58 194.693C158.58 194.693 158.203 228.155 160.934 230.513L162.534 239.87C162.534 239.87 147.154 241.696 144.565 236.968C144.565 236.968 146.568 233.462 144.607 221.889C142.647 210.316 138.869 184.817 138.869 184.817L128.632 126.651L149.881 140.381Z" fill="black"/>
<path d="M149.918 140.147C149.918 140.147 159.782 169.52 159.409 173.29C159.409 173.29 163.024 180.578 159.037 191.908C155.049 203.238 158.618 194.475 158.618 194.475C158.618 194.475 158.241 227.941 160.972 230.295L162.572 239.657C162.572 239.657 147.192 241.478 144.603 236.75C144.603 236.75 146.605 233.244 144.645 221.671C142.685 210.098 138.903 184.586 138.903 184.586L128.67 126.417L149.918 140.147Z" fill="#BEC7DE"/>
<path opacity="0.1" d="M131.208 127.941L141.24 184.963C141.24 184.963 145.009 210.475 146.982 222.048C148.955 233.621 146.94 237.127 146.94 237.127C147.694 238.505 149.525 239.321 151.745 239.795C148.628 239.43 145.818 238.58 144.838 236.787C144.838 236.787 146.844 233.282 144.884 221.709C142.924 210.136 139.141 184.624 139.141 184.624L128.905 126.454L131.208 127.941Z" fill="black"/>
<path d="M131.053 234.681C131.053 234.681 132.469 246.643 134.823 248.461C137.177 250.279 143.841 256.381 140.226 256.515C136.612 256.649 123.891 254.597 123.891 254.597L122.245 251.455L119.313 252.658L116.511 252.201L113.998 241.022C113.998 241.022 110.471 234.706 115.43 232.155C120.39 229.604 131.053 234.681 131.053 234.681Z" fill="#3A384D"/>
<path opacity="0.1" d="M149.881 140.381C149.881 140.381 159.745 169.738 159.372 173.508C159.372 173.508 162.986 180.796 158.999 192.126C155.012 203.456 158.58 194.693 158.58 194.693C158.58 194.693 158.203 228.155 160.934 230.513L162.534 239.87C162.534 239.87 147.154 241.696 144.565 236.968C144.565 236.968 146.568 233.462 144.607 221.889C142.647 210.316 138.869 184.817 138.869 184.817L128.632 126.651L149.881 140.381Z" fill="black"/>
<path opacity="0.1" d="M118.622 114.496C118.622 114.496 107.644 118.71 113.55 134.031C113.55 134.031 122.417 150.308 123.032 156.875L134.258 179.284C134.258 179.284 122.287 202.974 121.755 213.663C121.755 213.663 120.155 228.013 113.696 233.91C113.696 233.91 127.59 245.734 132.762 238.907C132.762 238.907 131.208 230.756 135.895 219.539C140.582 208.323 146.14 193.194 146.14 193.194C146.14 193.194 159.581 184.109 150.626 165.42L140.574 123.807L140.41 114.442L132.699 111.761L118.622 114.496Z" fill="black"/>
<path opacity="0.1" d="M118.119 114.651C118.119 114.651 107.141 118.865 113.047 134.186C113.047 134.186 121.91 150.467 122.526 157.035L133.751 179.443C133.751 179.443 121.78 203.129 121.257 213.822C121.257 213.822 119.657 228.168 113.194 234.069C113.194 234.069 127.087 245.893 132.264 239.066C132.264 239.066 130.706 230.911 135.393 219.698C140.08 208.486 145.638 193.336 145.638 193.336C145.638 193.336 159.083 184.251 150.128 165.562L140.075 123.95L139.912 114.584L132.205 111.904L118.119 114.651Z" fill="black"/>
<path d="M118.157 114.421C118.157 114.421 107.179 118.639 113.085 133.956C113.085 133.956 119.598 145.914 121.843 153.466C122.823 156.71 124.084 159.862 125.613 162.886L133.788 179.221C133.788 179.221 121.818 202.911 121.29 213.6C121.29 213.6 119.69 227.95 113.227 233.847C113.227 233.847 127.12 245.671 132.297 238.844C132.297 238.844 130.739 230.693 135.426 219.476C140.113 208.26 145.671 193.114 145.671 193.114C145.671 193.114 159.116 184.029 150.161 165.34L140.109 123.728L139.946 114.362L132.239 111.682L118.157 114.421Z" fill="#BEC7DE"/>
<path opacity="0.1" d="M118.157 114.421L132.251 111.669L134.09 112.31L120.959 114.869C120.959 114.869 109.981 119.083 115.887 134.404C115.887 134.404 122.396 146.362 124.645 153.914C125.625 157.158 126.886 160.31 128.415 163.334L136.595 179.669C136.595 179.669 124.607 203.351 124.092 214.04C124.092 214.04 122.488 228.39 116.029 234.287C116.029 234.287 122.015 239.38 127.59 240.951C121.441 240.825 113.227 233.83 113.227 233.83C119.69 227.933 121.29 213.583 121.29 213.583C121.818 202.894 133.788 179.204 133.788 179.204L125.613 162.869C124.084 159.845 122.823 156.693 121.843 153.449C119.598 145.91 113.085 133.939 113.085 133.939C107.179 118.639 118.157 114.421 118.157 114.421Z" fill="black"/>
<path d="M163.388 144.239L154.647 161.265C154.647 161.265 157.21 183.95 152.314 184.595C147.418 185.24 149.382 159.698 149.382 159.698L154.094 137.948L163.388 144.239Z" fill="#BE7C5E"/>
<path d="M211.166 155.313L217.416 184.817C217.416 184.817 232.754 205.495 221.897 203.024C211.041 200.553 210.442 189.424 210.442 189.424L199.971 153.487L211.166 155.313Z" fill="#BE7C5E"/>
<path d="M217.395 94.534L201.939 104.251L196.423 89.4701C196.423 89.4701 209.215 90.3413 210.706 85.5539C212.197 80.7665 217.395 94.534 217.395 94.534Z" fill="#BE7C5E"/>
<path d="M209.458 100.679L208.469 96.444L193.236 97.3361L187.099 121.969L198.53 122.379L204.93 112.398L208.419 102.664L209.458 100.679Z" fill="#BE7C5E"/>
<path opacity="0.1" d="M204.188 96.2345L205.445 89.135C205.445 89.135 177.252 89.4868 170.949 95.891C164.645 102.295 149.19 104.591 149.19 104.591L123.447 109.767L114.446 113.583C114.446 113.583 116.984 123.091 118.073 123.749C119.162 124.406 131.317 114.392 131.317 114.392L135.925 115.615L120.921 131.388L148.612 158.614L149.123 143.61L152.67 140.838C152.67 140.838 161.102 147.958 164.863 146.877L169.604 138.304C169.604 138.304 179.405 132.465 182.207 132.917C184.817 133.336 192.993 131.539 196.151 128.134C196.372 127.895 196.574 127.639 196.754 127.367C199.301 123.468 198.253 147.724 198.253 147.724L196.821 156.591L212.096 156.905L209.03 141.801C209.03 141.801 209.185 126.023 209.931 119.916C210.676 113.809 212.025 105.411 209.29 100.176L203.912 105.294L194.555 120.314L198.107 107.238L204.188 96.2345Z" fill="black"/>
<path d="M204.268 95.7655L202.932 88.4817C202.932 88.4817 177.345 89.0178 171.041 95.422C164.737 101.826 149.261 104.117 149.261 104.117L123.518 109.298L114.555 113.118C114.555 113.118 117.093 122.626 118.182 123.28C119.271 123.933 131.43 113.927 131.43 113.927L136.038 115.15L121.035 130.924L148.725 158.149L149.236 143.141L152.796 140.364C152.796 140.364 161.227 147.485 164.988 146.408L169.73 137.835C169.73 137.835 179.476 131.996 182.295 132.461C184.905 132.88 193.081 131.079 196.239 127.673C196.46 127.435 196.662 127.178 196.842 126.907C199.388 123.007 198.341 147.267 198.341 147.267L196.909 156.134L212.184 156.448L209.118 141.345C209.118 141.345 209.273 125.562 210.019 119.46C210.764 113.357 212.113 104.951 209.378 99.7194L204 104.817L194.63 119.824L198.182 106.748L204.268 95.7655Z" fill="#7FAFF2"/>
<path opacity="0.1" d="M171.996 105.039C171.996 105.039 156.746 117.902 155.15 124.829Z" fill="black"/>
<path opacity="0.1" d="M188.645 116.126C188.645 116.126 176.917 125.005 174.823 130.651Z" fill="black"/>
<path opacity="0.1" d="M154.396 129.495C154.396 129.495 153.294 134.823 153.076 137.663Z" fill="black"/>
<path opacity="0.1" d="M148.821 141.763C148.821 141.763 131.254 125.994 128.796 126.316Z" fill="black"/>
<path opacity="0.1" d="M210.89 85.822C212.318 81.2398 217.143 93.6628 217.55 94.7309C217.091 94.705 216.634 94.6547 216.18 94.5801C214.348 94.287 212.595 93.6237 211.028 92.6306C209.461 91.6375 208.113 90.3356 207.066 88.8042C208.947 88.2136 210.446 87.2796 210.89 85.822Z" fill="black"/>
<path d="M218.182 94.4879C225.756 94.4879 231.895 88.3484 231.895 80.7749C231.895 73.2013 225.756 67.0618 218.182 67.0618C210.609 67.0618 204.469 73.2013 204.469 80.7749C204.469 88.3484 210.609 94.4879 218.182 94.4879Z" fill="#BE7C5E"/>
<path opacity="0.1" d="M229.319 82.7518C230.396 84.5236 231.376 86.4461 233.039 87.6859C234.702 88.9256 237.319 89.2063 238.702 87.6607C239.204 87.0423 239.544 86.308 239.69 85.5246C240.704 81.2063 238.932 76.7288 236.632 72.9215C233.86 68.3518 230.178 64.2178 225.508 61.6126C220.838 59.0073 215.095 58.0817 210.036 59.8157C204.976 61.5497 200.821 66.1822 200.402 71.5099C200.172 74.2325 200.859 77.0094 200.293 79.6859C200 81.0806 199.368 82.4084 199.296 83.8324C199.162 86.4754 200.972 88.934 200.808 91.577C200.708 93.2063 199.874 94.6848 199.363 96.2387C198.107 99.9832 198.785 104.059 198.526 107.996C198.266 111.933 196.545 116.348 192.775 117.512C196.942 119.606 202.689 117.403 204.385 113.055C204.901 111.728 205.089 110.253 205.872 109.064C207.196 107.053 209.948 106.258 211.058 104.121C212.168 101.985 211.204 99.3843 209.99 97.311C208.775 95.2377 207.259 93.1518 207.234 90.7518C207.242 89.5799 207.608 88.4385 208.281 87.4793C208.955 86.5201 209.904 85.7887 211.003 85.3822C212.147 84.9843 213.382 84.9633 214.584 84.8293C217.566 84.4462 220.415 83.3594 222.894 81.6586C226.115 79.5518 226.978 78.8984 229.319 82.7518Z" fill="black"/>
<path d="M229.407 82.1529C230.484 83.9288 231.464 85.8471 233.127 87.0911C234.79 88.3351 237.407 88.6115 238.789 87.066C239.291 86.4471 239.631 85.7129 239.778 84.9298C240.792 80.6115 239.02 76.134 236.72 72.3267C233.948 67.7529 230.266 63.623 225.596 61.0178C220.926 58.4126 215.183 57.4911 210.124 59.2209C205.064 60.9508 199.971 65.6545 199.522 70.9822C199.292 73.7047 199.623 74.9654 199.058 77.6377C198.764 79.0325 199.447 81.8262 199.376 83.2419C199.242 85.8848 201.051 88.3435 200.888 90.9864C200.787 92.6157 199.954 94.0942 199.443 95.644C198.186 99.3927 198.865 103.468 198.605 107.405C198.346 111.342 196.624 115.753 192.854 116.917C197.022 119.012 202.769 116.808 204.465 112.461C204.98 111.137 205.169 109.663 205.952 108.473C207.275 106.463 210.027 105.667 211.137 103.531C212.247 101.395 211.284 98.7895 210.073 96.7162C208.863 94.6429 207.338 92.5613 207.313 90.1571C207.323 88.9859 207.689 87.8454 208.362 86.887C209.035 85.9287 209.984 85.1979 211.083 84.7916C212.226 84.3937 213.462 84.3728 214.664 84.2387C217.646 83.8538 220.493 82.7672 222.974 81.0681C226.211 78.9529 227.074 78.3037 229.407 82.1529Z" fill="#723647"/>
<path d="M200.949 90.0911L206.767 91.0313C207.219 91.1044 207.644 90.798 207.717 90.347C207.79 89.896 207.483 89.4711 207.031 89.3981L201.213 88.4579C200.761 88.3848 200.335 88.6912 200.262 89.1422C200.189 89.5932 200.497 90.0181 200.949 90.0911Z" fill="#252A62"/>
<path d="M188.959 205.843C189.056 212.402 194.588 217.571 201.148 217.571H202.061C202.867 217.568 203.643 217.881 204.222 218.442C204.661 218.853 204.966 219.387 205.097 219.975C205.16 220.211 205.191 220.455 205.19 220.699V232.281C205.185 234.508 205.822 236.689 207.024 238.563C208.773 241.219 209.721 244.322 209.755 247.502V247.502C209.755 248.244 209.903 248.979 210.19 249.663C210.477 250.348 210.897 250.968 211.427 251.488C211.956 252.009 212.584 252.418 213.274 252.693C213.963 252.968 214.701 253.102 215.443 253.089C218.509 253.035 220.913 250.396 220.913 247.326V244.431L222.438 244.607V247.51C222.438 248.251 222.586 248.985 222.873 249.669C223.16 250.352 223.581 250.972 224.11 251.491C224.639 252.01 225.266 252.419 225.955 252.694C226.644 252.968 227.38 253.102 228.121 253.089C231.192 253.035 233.596 250.396 233.596 247.326V245.86C235.116 246.496 243.74 246.496 246.132 245.86L246.781 245.809V247.485C246.779 248.229 246.925 248.965 247.211 249.652C247.497 250.338 247.917 250.961 248.447 251.483C248.977 252.005 249.605 252.416 250.296 252.691C250.987 252.967 251.726 253.102 252.469 253.089C255.535 253.035 257.939 250.396 257.939 247.326V244.921L258.446 244.875V247.514C258.448 248.255 258.597 248.989 258.884 249.672C259.172 250.355 259.593 250.974 260.122 251.493C260.652 252.012 261.279 252.42 261.968 252.694C262.657 252.968 263.393 253.102 264.134 253.089C265.486 253.043 266.777 252.517 267.775 251.604C268.774 250.691 269.413 249.451 269.579 248.109C269.611 247.849 269.627 247.587 269.629 247.326V235.213C269.634 231.052 268.24 227.01 265.671 223.736C265.226 223.157 264.977 222.451 264.96 221.72C264.942 220.99 265.158 220.273 265.575 219.673C268.415 215.514 272.616 208.494 272.477 203.518C272.506 202.169 272.033 200.857 271.15 199.837C271.095 199.774 271.037 199.715 270.982 199.657C266.894 195.376 259.698 198.743 260.323 204.628C260.535 206.599 260.393 208.592 259.904 210.513C259.62 211.597 259.237 212.653 258.76 213.667C258.282 214.684 257.496 215.526 256.514 216.072C255.532 216.619 254.402 216.843 253.286 216.712C252.527 216.619 251.763 216.573 250.999 216.574H227.543C226.167 216.574 224.824 216.144 223.705 215.342C222.586 214.54 221.745 213.408 221.303 212.105C221.064 211.422 220.944 210.704 220.947 209.981V191.719C220.947 191.244 220.851 190.773 220.666 190.335C220.481 189.896 220.21 189.5 219.868 189.169C219.527 188.837 219.122 188.578 218.679 188.406C218.235 188.234 217.761 188.153 217.286 188.168C216.822 188.184 216.366 188.294 215.945 188.491C215.524 188.687 215.147 188.966 214.836 189.311C214.201 190.011 213.848 190.921 213.847 191.866C213.848 192.113 213.799 192.358 213.705 192.586C213.611 192.815 213.472 193.022 213.298 193.197C213.123 193.372 212.915 193.51 212.687 193.605C212.458 193.699 212.214 193.747 211.967 193.747H200.88C199.299 193.746 197.735 194.061 196.277 194.671C194.819 195.281 193.497 196.174 192.388 197.3C191.279 198.426 190.404 199.761 189.816 201.227C189.227 202.694 188.936 204.263 188.959 205.843V205.843Z" fill="#F3AD55"/>
<path d="M258.639 248.901C258.953 250.117 259.668 251.191 260.668 251.951C261.668 252.711 262.895 253.112 264.151 253.089C265.503 253.043 266.794 252.517 267.792 251.604C268.79 250.691 269.43 249.451 269.596 248.109C266.178 247.2 261.495 246.572 258.639 248.901Z" fill="#FBDCA3"/>
<path d="M246.953 248.901C247.268 250.117 247.984 251.192 248.984 251.952C249.985 252.712 251.213 253.112 252.469 253.089C253.817 253.038 255.103 252.509 256.096 251.597C257.089 250.684 257.725 249.448 257.889 248.109C254.513 247.2 249.843 246.572 246.953 248.901Z" fill="#FBDCA3"/>
<path d="M222.618 248.901C222.932 250.117 223.647 251.191 224.647 251.951C225.647 252.711 226.874 253.112 228.13 253.089C229.482 253.043 230.773 252.517 231.771 251.604C232.769 250.691 233.409 249.451 233.575 248.109C230.157 247.2 225.483 246.572 222.618 248.901Z" fill="#FBDCA3"/>
<path d="M209.927 248.901C210.241 250.117 210.957 251.193 211.958 251.953C212.958 252.713 214.186 253.113 215.443 253.089C216.791 253.038 218.076 252.509 219.07 251.597C220.063 250.684 220.699 249.448 220.863 248.109C217.487 247.2 212.804 246.572 209.927 248.901Z" fill="#FBDCA3"/>
<path d="M259.87 210.513C263.812 208.93 268.62 206.031 272.436 203.518C272.465 202.169 271.991 200.857 271.108 199.837C271.053 199.774 270.995 199.715 270.94 199.657C266.852 195.376 259.657 198.743 260.281 204.628C260.496 206.599 260.357 208.592 259.87 210.513V210.513Z" fill="#FBDCA3"/>
<path d="M255.099 216.607C255.099 216.607 244.247 230.27 226.492 216.574Z" fill="#FBDCA3"/>
<path d="M220.913 191.213C220.913 191.213 214.32 199.837 220.913 210.48Z" fill="#FBDCA3"/>
<path d="M205.19 220.632C205.19 220.632 210.999 227.845 205.265 233.583Z" fill="#FBDCA3"/>
<path opacity="0.1" d="M204.683 219.108C205.102 219.527 204.968 219.904 205.102 220.498L223.95 215.56C222.936 214.777 221.675 213.851 221.261 212.628C219.007 214.367 214.538 217.307 204.683 219.108Z" fill="black"/>
<path d="M204.222 218.459C204.661 218.87 204.966 219.404 205.097 219.992L223.481 215.2C222.454 214.409 221.685 213.332 221.269 212.105C219.007 213.86 214.078 216.649 204.222 218.459Z" fill="#383F4D"/>
<path opacity="0.1" d="M220.578 213.118C220.578 213.118 214.827 217.445 205.19 218.785Z" fill="black"/>
<path d="M220.578 212.612C220.578 212.612 214.827 216.938 205.19 218.279Z" fill="#F3AD55"/>
<path opacity="0.1" d="M206.203 213.022C206.203 213.022 196.57 216.067 194.031 206.429L206.203 213.022Z" fill="black"/>
<path d="M206.203 212.515C206.203 212.515 196.57 215.56 194.031 205.922L206.203 212.515Z" fill="#FBDCA3"/>
<path d="M188.959 206.429C189.519 206.429 189.973 205.634 189.973 204.653C189.973 203.673 189.519 202.877 188.959 202.877C188.399 202.877 187.946 203.673 187.946 204.653C187.946 205.634 188.399 206.429 188.959 206.429Z" fill="#383F4D"/>
<path opacity="0.1" d="M265.801 241.173L263.774 224.942C263.774 224.942 269.86 234.576 265.801 241.173Z" fill="black"/>
<path d="M263.267 224.942C263.267 224.942 269.353 234.576 265.294 241.173L263.267 224.942Z" fill="#FBDCA3"/>
</g>
<defs>
<linearGradient id="paint0_linear" x1="106.193" y1="146.085" x2="233.029" y2="166.582" gradientUnits="userSpaceOnUse">
<stop stop-color="#808080" stop-opacity="0.25"/>
<stop offset="0.54" stop-color="#808080" stop-opacity="0.12"/>
<stop offset="1" stop-color="#808080" stop-opacity="0.1"/>
</linearGradient>
<clipPath id="clip0">
<rect width="400" height="285.026" fill="white"/>
</clipPath>
</defs>
</svg>
