<svg width="60" height="60" viewBox="0 0 60 60" fill="none" xmlns="http://www.w3.org/2000/svg">
<g clip-path="url(#clip0)">
<path d="M58.367 44.034L49.9938 35.6608C47.0033 32.6704 41.9196 33.8666 40.7235 37.7541C39.8263 40.4456 36.8359 41.9408 34.1445 41.3426C28.1637 39.8474 20.0896 32.0723 18.5943 25.7924C17.6972 23.1009 19.4915 20.1105 22.1829 19.2135C26.0704 18.0173 27.2666 12.9336 24.2761 9.94315L15.903 1.56997C13.5106 -0.523324 9.92213 -0.523324 7.82883 1.56997L2.14703 7.25177C-3.53477 13.2326 2.74512 29.0818 16.8001 43.1368C30.8551 57.1918 46.7043 63.7709 52.6852 57.7899L58.367 52.1081C60.4604 49.7158 60.4604 46.1272 58.367 44.034Z" fill="#48BB78"/>
</g>
<defs>
<clipPath id="clip0">
<rect width="60" height="60" fill="white"/>
</clipPath>
</defs>
</svg>
