<svg width="60" height="60" viewBox="0 0 60 60" fill="none" xmlns="http://www.w3.org/2000/svg">
<path d="M30 28.125C34.8541 28.125 38.7891 24.19 38.7891 19.3359C38.7891 14.4819 34.8541 10.5469 30 10.5469C25.1459 10.5469 21.2109 14.4819 21.2109 19.3359C21.2109 24.19 25.1459 28.125 30 28.125Z" fill="#ECC94B"/>
<path d="M30 0C20.4952 0 10.6641 7.23211 10.6641 19.3359C10.6641 30.3927 27.9161 51.4547 28.6491 52.337C28.9837 52.737 29.4782 52.9688 30 52.9688C30.5218 52.9688 31.0163 52.737 31.3509 52.337C32.0839 51.4547 49.3359 30.3927 49.3359 19.3359C49.3359 8.6741 40.6618 0 30 0ZM30 31.6406C23.2159 31.6406 17.6953 26.12 17.6953 19.3359C17.6953 12.5518 23.2159 7.03125 30 7.03125C36.7841 7.03125 42.3047 12.5518 42.3047 19.3359C42.3047 26.12 36.7841 31.6406 30 31.6406Z" fill="#ECC94B"/>
<path d="M41.8461 44.2747C38.4568 49.1817 35.2882 53.0996 34.0547 54.584C33.0418 55.7942 31.5655 56.4843 30 56.4843C28.4345 56.4843 26.9582 55.7942 25.9522 54.5926C24.7158 53.1045 21.545 49.1838 18.1541 44.2747C13.6037 45.8827 10.6641 48.3879 10.6641 51.2109C10.6641 56.0648 19.3212 60 30 60C40.6788 60 49.3359 56.0648 49.3359 51.2109C49.3359 48.3881 46.3964 45.8827 41.8461 44.2747Z" fill="#ECC94B"/>
</svg>
