<svg width="15" height="15" viewBox="0 0 15 15" fill="none" xmlns="http://www.w3.org/2000/svg">
<path d="M14.9609 5.75386C14.8627 5.45012 14.5933 5.23439 14.2746 5.20567L9.94517 4.81255L8.2332 0.805532C8.10697 0.511869 7.81949 0.321777 7.50008 0.321777C7.18066 0.321777 6.89318 0.511869 6.76695 0.806218L5.05498 4.81255L0.724885 5.20567C0.406732 5.23508 0.138017 5.45012 0.0392524 5.75386C-0.0595127 6.05759 0.0316991 6.39074 0.272374 6.60074L3.5449 9.47076L2.57991 13.7216C2.50929 14.0341 2.6306 14.3572 2.88993 14.5446C3.02933 14.6453 3.19241 14.6966 3.35687 14.6966C3.49866 14.6966 3.63931 14.6584 3.76554 14.5829L7.50008 12.3509L11.2332 14.5829C11.5064 14.7472 11.8508 14.7322 12.1095 14.5446C12.369 14.3566 12.4902 14.0334 12.4196 13.7216L11.4546 9.47076L14.7271 6.60131C14.9678 6.39074 15.0597 6.05816 14.9609 5.75386Z" fill="#FFC107"/>
</svg>
